<svg xmlns="http://www.w3.org/2000/svg" role="img" aria-label="Outlined brown coat of arms logo" viewBox="3.12 101.12 1015.75 1349.75">
  <g fill="none" stroke="currentColor" stroke-width="3.2" stroke-linecap="round" stroke-linejoin="round">
    <path d="M 604.0 858.0 L 771.0 859.0 L 770.0 1079.0 L 768.0 1117.0 L 764.0 1149.0 L 752.0 1198.0 L 734.0 1243.0 L 711.0 1285.0 L 682.0 1325.0 L 648.0 1361.0 L 607.0 1395.0 L 561.0 1425.0 L 518.0 1447.0 L 512.0 1447.0 L 481.0 1431.0 L 422.0 1394.0 L 381.0 1361.0 L 340.0 1318.0 L 311.0 1277.0 L 287.0 1232.0 L 269.0 1183.0 L 260.0 1144.0 L 254.0 1082.0 L 254.0 859.0 L 423.0 858.0"/>
    <path d="M 377.0 591.0 L 340.0 625.0 L 308.0 650.0 L 282.0 665.0 L 269.0 669.0 L 246.0 669.0 L 232.0 662.0 L 221.0 648.0 L 219.0 641.0 L 219.0 631.0 L 222.0 622.0 L 228.0 615.0 L 241.0 610.0 L 247.0 612.0 L 251.0 616.0 L 253.0 627.0 L 261.0 626.0 L 267.0 623.0 L 275.0 613.0 L 275.0 602.0 L 272.0 596.0 L 263.0 588.0 L 251.0 584.0 L 230.0 585.0 L 211.0 594.0"/>
    <path d="M 593.0 868.0 L 761.0 869.0 L 760.0 1092.0 L 756.0 1137.0 L 746.0 1185.0 L 731.0 1226.0 L 706.0 1275.0 L 684.0 1307.0 L 663.0 1332.0 L 634.0 1361.0 L 610.0 1381.0 L 568.0 1410.0 L 517.0 1437.0 L 513.0 1437.0 L 477.0 1418.0 L 426.0 1385.0 L 391.0 1357.0 L 352.0 1317.0 L 320.0 1273.0 L 300.0 1237.0 L 282.0 1193.0 L 269.0 1139.0 L 264.0 1085.0 L 265.0 869.0 L 435.0 868.0"/>
    <path d="M 771.0 626.0 L 772.0 616.0 L 776.0 612.0 L 784.0 610.0 L 794.0 614.0 L 799.0 619.0 L 803.0 627.0 L 803.0 644.0 L 801.0 649.0 L 789.0 663.0 L 780.0 668.0 L 757.0 669.0 L 749.0 667.0 L 729.0 658.0 L 710.0 645.0 L 678.0 619.0 L 648.0 591.0"/>
    <path d="M 628.0 1106.0 L 633.0 1091.0 L 637.0 1086.0 L 636.0 1061.0 L 629.0 1034.0 L 624.0 1023.0 L 613.0 1006.0 L 598.0 991.0 L 583.0 981.0 L 570.0 975.0 L 545.0 968.0 L 522.0 965.0 L 500.0 966.0 L 479.0 970.0 L 454.0 979.0 L 436.0 990.0 L 427.0 999.0"/>
    <path d="M 819.0 1154.0 L 821.0 1147.0 L 815.0 1139.0 L 798.0 1140.0 L 789.0 1132.0 L 787.0 1126.0 L 789.0 1114.0 L 797.0 1100.0 L 811.0 1086.0 L 832.0 1071.0 L 843.0 1067.0 L 844.0 1071.0 L 841.0 1076.0 L 839.0 1089.0 L 840.0 1092.0 L 845.0 1095.0"/>
    <path d="M 660.0 735.0 L 663.0 740.0 L 665.0 751.0 L 664.0 772.0 L 657.0 793.0 L 649.0 806.0 L 629.0 825.0 L 595.0 847.0 L 584.0 857.0 L 574.0 880.0 L 558.0 900.0 L 547.0 907.0 L 539.0 908.0 L 531.0 912.0 L 515.0 930.0"/>
    <path d="M 363.0 735.0 L 359.0 749.0 L 360.0 768.0 L 365.0 786.0 L 377.0 806.0 L 399.0 826.0 L 439.0 851.0 L 443.0 855.0 L 451.0 875.0 L 459.0 889.0 L 475.0 904.0 L 492.0 909.0 L 506.0 920.0 L 513.0 930.0"/>
    <path d="M 219.0 1195.0 L 221.0 1203.0 L 226.0 1206.0 L 238.0 1194.0 L 242.0 1187.0 L 249.0 1152.0 L 248.0 1118.0 L 241.0 1096.0 L 227.0 1069.0 L 217.0 1045.0 L 209.0 1033.0 L 199.0 1023.0 L 188.0 1016.0"/>
    <path d="M 159.0 543.0 L 163.0 544.0 L 168.0 552.0 L 168.0 557.0 L 164.0 564.0 L 156.0 569.0 L 151.0 570.0 L 152.0 574.0 L 159.0 581.0 L 164.0 583.0 L 179.0 582.0 L 190.0 574.0 L 194.0 565.0"/>
    <path d="M 529.0 1120.0 L 533.0 1120.0 L 538.0 1123.0 L 542.0 1135.0 L 540.0 1140.0 L 536.0 1144.0 L 530.0 1145.0 L 526.0 1149.0 L 523.0 1149.0 L 521.0 1147.0 L 522.0 1137.0 L 525.0 1134.0 L 528.0 1135.0"/>
    <path d="M 985.0 601.0 L 995.0 603.0 L 1006.0 608.0 L 1012.0 614.0 L 1015.0 623.0 L 999.0 626.0 L 986.0 637.0 L 959.0 686.0 L 928.0 727.0 L 916.0 731.0 L 883.0 732.0 L 861.0 739.0 L 829.0 743.0"/>
    <path d="M 864.0 543.0 L 858.0 546.0 L 855.0 556.0 L 856.0 560.0 L 863.0 567.0 L 871.0 570.0 L 871.0 573.0 L 867.0 579.0 L 859.0 583.0 L 844.0 582.0 L 838.0 579.0 L 832.0 573.0 L 829.0 565.0"/>
    <path d="M 710.0 775.0 L 710.0 777.0 L 726.0 791.0 L 786.0 852.0 L 795.0 859.0 L 812.0 868.0 L 827.0 869.0 L 833.0 878.0 L 842.0 887.0 L 866.0 900.0 L 875.0 903.0 L 876.0 895.0"/>
    <path d="M 641.0 1126.0 L 648.0 1126.0 L 661.0 1121.0 L 669.0 1115.0 L 681.0 1101.0 L 689.0 1085.0 L 692.0 1068.0 L 700.0 1056.0 L 702.0 1050.0 L 702.0 1039.0 L 709.0 1024.0 L 710.0 1016.0"/>
    <path d="M 612.0 1141.0 L 605.0 1158.0 L 604.0 1172.0 L 598.0 1179.0 L 598.0 1188.0 L 602.0 1201.0 L 614.0 1221.0 L 613.0 1227.0 L 545.0 1298.0 L 517.0 1320.0 L 505.0 1327.0 L 501.0 1327.0"/>
    <path d="M 188.0 1015.0 L 209.0 1006.0 L 221.0 994.0 L 225.0 985.0 L 225.0 970.0 L 223.0 965.0 L 225.0 957.0 L 231.0 947.0 L 223.0 943.0 L 207.0 942.0 L 192.0 946.0 L 178.0 954.0"/>
    <path d="M 203.0 1154.0 L 201.0 1151.0 L 201.0 1145.0 L 205.0 1140.0 L 224.0 1140.0 L 231.0 1134.0 L 233.0 1130.0 L 233.0 1117.0 L 225.0 1102.0 L 208.0 1085.0 L 188.0 1071.0 L 177.0 1068.0"/>
    <path d="M 514.0 833.0 L 508.0 835.0 L 503.0 840.0 L 501.0 845.0 L 502.0 851.0 L 511.0 858.0 L 520.0 857.0 L 526.0 850.0 L 526.0 842.0 L 521.0 835.0 L 515.0 833.0"/>
    <path d="M 770.0 627.0 L 763.0 626.0 L 757.0 623.0 L 749.0 613.0 L 748.0 605.0 L 751.0 597.0 L 756.0 591.0 L 773.0 584.0 L 788.0 584.0 L 802.0 588.0 L 809.0 593.0"/>
    <path d="M 391.0 1195.0 L 388.0 1199.0 L 388.0 1205.0 L 391.0 1209.0 L 398.0 1211.0 L 403.0 1215.0 L 401.0 1238.0 L 403.0 1243.0 L 408.0 1248.0 L 418.0 1252.0 L 465.0 1255.0"/>
    <path d="M 415.0 580.0 L 397.0 597.0 L 393.0 603.0 L 388.0 619.0 L 389.0 630.0 L 394.0 642.0 L 399.0 649.0 L 415.0 664.0 L 438.0 680.0 L 439.0 686.0 L 445.0 694.0"/>
    <path d="M 374.0 588.0 L 366.0 590.0 L 354.0 590.0 L 350.0 588.0 L 339.0 595.0 L 322.0 595.0 L 307.0 590.0 L 302.0 591.0 L 302.0 585.0 L 308.0 579.0 L 316.0 575.0"/>
    <path d="M 447.0 694.0 L 450.0 692.0 L 451.0 682.0 L 441.0 674.0 L 414.0 646.0 L 408.0 636.0 L 405.0 626.0 L 405.0 615.0 L 411.0 601.0 L 423.0 588.0 L 433.0 581.0"/>
    <path d="M 821.0 417.0 L 820.0 406.0 L 818.0 402.0 L 810.0 395.0 L 805.0 394.0 L 803.0 396.0 L 803.0 407.0 L 800.0 416.0 L 779.0 450.0 L 776.0 460.0 L 776.0 467.0"/>
    <path d="M 38.0 601.0 L 19.0 607.0 L 11.0 614.0 L 7.0 623.0 L 24.0 626.0 L 36.0 636.0 L 62.0 683.0 L 77.0 705.0 L 96.0 727.0 L 114.0 732.0 L 137.0 732.0"/>
    <path d="M 427.0 999.0 L 444.0 1009.0 L 469.0 1027.0 L 510.0 1045.0 L 530.0 1058.0 L 542.0 1061.0 L 570.0 1074.0 L 584.0 1086.0 L 595.0 1090.0 L 606.0 1100.0 L 619.0 1108.0"/>
    <path d="M 62.0 562.0 L 62.0 552.0 L 64.0 547.0 L 70.0 542.0 L 82.0 540.0 L 84.0 552.0 L 90.0 558.0 L 95.0 568.0 L 98.0 582.0 L 100.0 584.0"/>
    <path d="M 668.0 980.0 L 648.0 991.0 L 639.0 999.0 L 639.0 1009.0 L 647.0 1030.0 L 652.0 1050.0 L 653.0 1072.0 L 649.0 1090.0 L 643.0 1101.0 L 635.0 1110.0"/>
    <path d="M 670.0 727.0 L 661.0 703.0 L 652.0 685.0 L 641.0 673.0 L 634.0 672.0 L 632.0 676.0 L 632.0 683.0 L 636.0 696.0 L 644.0 712.0 L 659.0 732.0"/>
    <path d="M 129.0 651.0 L 141.0 646.0 L 146.0 647.0 L 146.0 666.0 L 148.0 677.0 L 158.0 703.0 L 166.0 714.0 L 179.0 727.0 L 199.0 740.0 L 201.0 743.0"/>
    <path d="M 365.0 732.0 L 379.0 713.0 L 387.0 698.0 L 391.0 686.0 L 391.0 674.0 L 389.0 672.0 L 383.0 673.0 L 372.0 685.0 L 362.0 704.0 L 354.0 727.0"/>
    <path d="M 843.0 471.0 L 845.0 457.0 L 855.0 444.0 L 868.0 452.0 L 879.0 465.0 L 880.0 484.0 L 884.0 486.0 L 892.0 495.0 L 894.0 500.0 L 894.0 515.0"/>
    <path d="M 613.0 581.0 L 629.0 597.0 L 636.0 612.0 L 635.0 633.0 L 625.0 650.0 L 606.0 667.0 L 591.0 677.0 L 586.0 682.0 L 586.0 686.0 L 584.0 688.0"/>
    <path d="M 387.0 1167.0 L 377.0 1166.0 L 373.0 1161.0 L 373.0 1156.0 L 386.0 1132.0 L 398.0 1115.0 L 398.0 1106.0 L 394.0 1099.0 L 394.0 1094.0 L 398.0 1084.0"/>
    <path d="M 985.0 600.0 L 1002.0 584.0 L 1006.0 578.0 L 1011.0 564.0 L 1011.0 554.0 L 1009.0 552.0 L 999.0 553.0 L 984.0 551.0 L 970.0 556.0 L 960.0 564.0"/>
    <path d="M 804.0 1193.0 L 801.0 1205.0 L 797.0 1206.0 L 781.0 1188.0 L 773.0 1153.0 L 774.0 1116.0 L 782.0 1090.0 L 803.0 1042.0 L 816.0 1026.0 L 833.0 1015.0"/>
    <path d="M 833.0 1015.0 L 810.0 1004.0 L 799.0 991.0 L 796.0 981.0 L 799.0 961.0 L 792.0 947.0 L 800.0 943.0 L 814.0 942.0 L 828.0 945.0 L 840.0 952.0"/>
    <path d="M 831.0 446.0 L 837.0 454.0 L 837.0 460.0 L 833.0 464.0 L 829.0 466.0 L 821.0 466.0 L 811.0 462.0 L 800.0 464.0 L 791.0 473.0 L 791.0 485.0"/>
    <path d="M 670.0 1231.0 L 676.0 1224.0 L 680.0 1215.0 L 680.0 1205.0 L 682.0 1199.0 L 681.0 1183.0 L 677.0 1176.0 L 669.0 1168.0 L 643.0 1154.0 L 634.0 1144.0"/>
    <path d="M 575.0 687.0 L 575.0 681.0 L 578.0 680.0 L 611.0 647.0 L 619.0 633.0 L 621.0 625.0 L 620.0 611.0 L 613.0 598.0 L 582.0 570.0"/>
    <path d="M 206.0 693.0 L 197.0 697.0 L 192.0 702.0 L 189.0 710.0 L 190.0 711.0 L 200.0 712.0 L 219.0 726.0 L 231.0 726.0 L 241.0 722.0"/>
    <path d="M 514.0 1156.0 L 514.0 1162.0 L 518.0 1168.0 L 522.0 1170.0 L 530.0 1170.0 L 534.0 1168.0 L 542.0 1156.0 L 557.0 1142.0 L 562.0 1130.0"/>
    <path d="M 179.0 472.0 L 178.0 457.0 L 167.0 443.0 L 146.0 460.0 L 142.0 470.0 L 143.0 483.0 L 131.0 494.0 L 129.0 499.0 L 129.0 515.0"/>
    <path d="M 310.0 775.0 L 303.0 778.0 L 266.0 804.0 L 244.0 813.0 L 232.0 813.0 L 224.0 810.0 L 214.0 799.0 L 210.0 788.0 L 210.0 783.0"/>
    <path d="M 528.0 1119.0 L 529.0 1114.0 L 536.0 1107.0 L 543.0 1105.0 L 550.0 1108.0 L 555.0 1117.0 L 555.0 1128.0 L 553.0 1134.0 L 537.0 1152.0"/>
    <path d="M 311.0 818.0 L 305.0 817.0 L 300.0 812.0 L 298.0 803.0 L 306.0 801.0 L 318.0 794.0 L 335.0 777.0 L 342.0 766.0 L 347.0 762.0"/>
    <path d="M 192.0 446.0 L 186.0 453.0 L 185.0 457.0 L 191.0 465.0 L 201.0 465.0 L 212.0 461.0 L 222.0 463.0 L 231.0 471.0 L 233.0 482.0"/>
    <path d="M 827.0 739.0 L 846.0 726.0 L 856.0 716.0 L 865.0 703.0 L 870.0 693.0 L 875.0 675.0 L 876.0 647.0 L 883.0 646.0 L 893.0 650.0"/>
    <path d="M 242.0 723.0 L 242.0 739.0 L 244.0 741.0 L 247.0 741.0 L 253.0 736.0 L 270.0 733.0 L 279.0 729.0 L 288.0 721.0 L 297.0 704.0"/>
    <path d="M 38.0 600.0 L 17.0 579.0 L 13.0 569.0 L 11.0 555.0 L 14.0 552.0 L 25.0 553.0 L 38.0 551.0 L 52.0 556.0 L 61.0 563.0"/>
    <path d="M 719.0 715.0 L 700.0 696.0 L 695.0 684.0 L 692.0 662.0 L 687.0 651.0 L 656.0 615.0 L 634.0 587.0 L 631.0 581.0"/>
    <path d="M 87.0 804.0 L 70.0 804.0 L 58.0 809.0 L 55.0 812.0 L 57.0 820.0 L 63.0 830.0 L 70.0 836.0 L 76.0 838.0"/>
    <path d="M 202.0 744.0 L 209.0 746.0 L 221.0 753.0 L 228.0 762.0 L 228.0 772.0 L 226.0 775.0 L 216.0 782.0 L 211.0 782.0"/>
    <path d="M 436.0 868.0 L 452.0 897.0 L 469.0 913.0 L 481.0 918.0 L 488.0 919.0 L 494.0 923.0 L 505.0 935.0 L 513.0 949.0"/>
    <path d="M 876.0 1107.0 L 872.0 1121.0 L 874.0 1135.0 L 879.0 1140.0 L 883.0 1141.0 L 892.0 1150.0 L 898.0 1153.0 L 902.0 1153.0"/>
    <path d="M 68.0 988.0 L 65.0 965.0 L 59.0 948.0 L 50.0 931.0 L 44.0 913.0 L 43.0 895.0 L 46.0 882.0 L 49.0 880.0"/>
    <path d="M 562.0 1128.0 L 563.0 1114.0 L 558.0 1103.0 L 552.0 1098.0 L 545.0 1096.0 L 536.0 1097.0 L 530.0 1100.0 L 521.0 1108.0"/>
    <path d="M 817.0 693.0 L 824.0 696.0 L 831.0 703.0 L 831.0 711.0 L 820.0 713.0 L 803.0 726.0 L 792.0 726.0 L 783.0 722.0"/>
    <path d="M 830.0 1175.0 L 841.0 1184.0 L 847.0 1186.0 L 845.0 1191.0 L 838.0 1198.0 L 830.0 1201.0 L 823.0 1201.0 L 805.0 1193.0"/>
    <path d="M 657.0 815.0 L 659.0 819.0 L 659.0 829.0 L 656.0 834.0 L 662.0 841.0 L 672.0 841.0 L 676.0 839.0 L 681.0 832.0"/>
    <path d="M 203.0 594.0 L 207.0 586.0 L 207.0 583.0 L 205.0 581.0 L 191.0 583.0 L 186.0 585.0 L 176.0 593.0 L 167.0 608.0"/>
    <path d="M 392.0 585.0 L 369.0 614.0 L 338.0 649.0 L 332.0 660.0 L 329.0 674.0 L 329.0 683.0 L 324.0 696.0 L 304.0 716.0"/>
    <path d="M 509.0 481.0 L 506.0 490.0 L 499.0 497.0 L 494.0 500.0 L 484.0 501.0 L 472.0 496.0 L 465.0 488.0 L 462.0 480.0"/>
    <path d="M 313.0 778.0 L 232.0 856.0 L 211.0 868.0 L 195.0 869.0 L 187.0 881.0 L 179.0 888.0 L 155.0 901.0 L 147.0 903.0"/>
    <path d="M 712.0 773.0 L 722.0 778.0 L 762.0 806.0 L 780.0 813.0 L 790.0 813.0 L 800.0 809.0 L 809.0 797.0 L 812.0 783.0"/>
    <path d="M 514.0 519.0 L 516.0 519.0 L 518.0 522.0 L 515.0 527.0 L 511.0 527.0 L 507.0 523.0 L 510.0 519.0 L 512.0 519.0"/>
    <path d="M 481.0 570.0 L 481.0 573.0 L 473.0 588.0 L 468.0 605.0 L 467.0 630.0 L 473.0 656.0 L 482.0 678.0 L 482.0 682.0"/>
    <path d="M 723.0 591.0 L 714.0 591.0 L 702.0 595.0 L 687.0 595.0 L 681.0 593.0 L 675.0 588.0 L 670.0 590.0 L 650.0 588.0"/>
    <path d="M 823.0 743.0 L 803.0 753.0 L 797.0 759.0 L 794.0 766.0 L 797.0 775.0 L 801.0 779.0 L 807.0 782.0 L 811.0 782.0"/>
    <path d="M 86.0 1126.0 L 88.0 1119.0 L 87.0 1103.0 L 77.0 1081.0 L 72.0 1062.0 L 73.0 1045.0 L 77.0 1034.0 L 84.0 1025.0"/>
    <path d="M 229.0 551.0 L 235.0 551.0 L 239.0 549.0 L 244.0 544.0 L 252.0 542.0 L 256.0 537.0 L 256.0 528.0 L 249.0 520.0"/>
    <path d="M 776.0 520.0 L 768.0 527.0 L 766.0 533.0 L 767.0 537.0 L 772.0 542.0 L 780.0 544.0 L 786.0 550.0 L 794.0 551.0"/>
    <path d="M 173.0 1096.0 L 176.0 1103.0 L 176.0 1116.0 L 172.0 1123.0 L 170.0 1123.0 L 162.0 1114.0 L 153.0 1111.0 L 149.0 1107.0"/>
    <path d="M 679.0 763.0 L 687.0 775.0 L 706.0 794.0 L 716.0 800.0 L 726.0 803.0 L 724.0 812.0 L 720.0 816.0 L 713.0 819.0"/>
    <path d="M 193.0 1175.0 L 182.0 1184.0 L 176.0 1186.0 L 177.0 1190.0 L 185.0 1198.0 L 189.0 1200.0 L 204.0 1200.0 L 216.0 1193.0"/>
    <path d="M 855.0 606.0 L 848.0 595.0 L 840.0 587.0 L 833.0 583.0 L 826.0 581.0 L 816.0 582.0 L 815.0 584.0 L 820.0 594.0"/>
    <path d="M 506.0 848.0 L 506.0 844.0 L 512.0 838.0 L 516.0 838.0 L 521.0 843.0 L 520.0 851.0 L 517.0 853.0 L 512.0 853.0"/>
    <path d="M 404.0 816.0 L 401.0 816.0 L 398.0 813.0 L 398.0 810.0 L 401.0 807.0 L 404.0 807.0 L 407.0 810.0 L 407.0 813.0"/>
    <path d="M 524.0 892.0 L 524.0 889.0 L 526.0 887.0 L 530.0 887.0 L 532.0 889.0 L 532.0 892.0 L 530.0 894.0 L 526.0 894.0"/>
    <path d="M 460.0 527.0 L 458.0 525.0 L 458.0 521.0 L 460.0 519.0 L 463.0 519.0 L 465.0 521.0 L 465.0 525.0 L 463.0 527.0"/>
    <path d="M 430.0 593.0 L 426.0 601.0 L 423.0 615.0 L 423.0 625.0 L 427.0 639.0 L 437.0 656.0 L 460.0 680.0"/>
    <path d="M 659.0 1095.0 L 670.0 1077.0 L 673.0 1066.0 L 673.0 1053.0 L 667.0 1032.0 L 668.0 1027.0 L 709.0 1015.0"/>
    <path d="M 472.0 562.0 L 472.0 558.0 L 468.0 556.0 L 465.0 558.0 L 464.0 562.0 L 460.0 563.0 L 459.0 567.0"/>
    <path d="M 187.0 779.0 L 179.0 767.0 L 169.0 757.0 L 163.0 754.0 L 152.0 752.0 L 145.0 758.0 L 141.0 765.0"/>
    <path d="M 187.0 779.0 L 192.0 770.0 L 198.0 764.0 L 210.0 761.0 L 213.0 763.0 L 209.0 776.0 L 210.0 782.0"/>
    <path d="M 621.0 1146.0 L 621.0 1162.0 L 624.0 1170.0 L 630.0 1176.0 L 665.0 1201.0 L 672.0 1208.0 L 672.0 1210.0"/>
    <path d="M 248.0 468.0 L 252.0 469.0 L 257.0 474.0 L 262.0 488.0 L 261.0 502.0 L 257.0 510.0 L 249.0 518.0"/>
    <path d="M 470.0 679.0 L 455.0 660.0 L 445.0 644.0 L 438.0 621.0 L 440.0 609.0 L 446.0 595.0 L 467.0 572.0"/>
    <path d="M 934.0 804.0 L 953.0 804.0 L 965.0 809.0 L 968.0 812.0 L 961.0 828.0 L 954.0 835.0 L 949.0 837.0"/>
    <path d="M 515.0 820.0 L 518.0 820.0 L 537.0 810.0 L 562.0 791.0 L 583.0 769.0 L 594.0 754.0 L 594.0 751.0"/>
    <path d="M 369.0 816.0 L 366.0 823.0 L 369.0 835.0 L 364.0 841.0 L 355.0 842.0 L 351.0 840.0 L 344.0 832.0"/>
    <path d="M 466.0 1256.0 L 477.0 1268.0 L 482.0 1282.0 L 491.0 1293.0 L 496.0 1303.0 L 500.0 1318.0 L 500.0 1326.0"/>
    <path d="M 565.0 681.0 L 591.0 653.0 L 601.0 635.0 L 603.0 627.0 L 602.0 608.0 L 593.0 590.0 L 567.0 568.0"/>
    <path d="M 565.0 681.0 L 566.0 687.0 L 561.0 691.0 L 560.0 695.0 L 554.0 694.0 L 554.0 690.0 L 551.0 684.0"/>
    <path d="M 895.0 516.0 L 904.0 525.0 L 906.0 534.0 L 912.0 541.0 L 915.0 548.0 L 919.0 565.0 L 918.0 573.0"/>
    <path d="M 199.0 416.0 L 187.0 412.0 L 170.0 413.0 L 168.0 415.0 L 176.0 433.0 L 183.0 440.0 L 192.0 445.0"/>
    <path d="M 556.0 680.0 L 579.0 649.0 L 585.0 637.0 L 588.0 626.0 L 587.0 609.0 L 577.0 590.0 L 559.0 572.0"/>
    <path d="M 871.0 933.0 L 867.0 926.0 L 857.0 916.0 L 849.0 911.0 L 846.0 915.0 L 842.0 930.0 L 843.0 949.0"/>
    <path d="M 812.0 781.0 L 812.0 769.0 L 810.0 763.0 L 813.0 761.0 L 824.0 764.0 L 830.0 770.0 L 835.0 779.0"/>
    <path d="M 664.0 276.0 L 660.0 274.0 L 653.0 274.0 L 650.0 276.0 L 638.0 277.0 L 624.0 283.0 L 619.0 287.0"/>
    <path d="M 710.0 1014.0 L 708.0 1010.0 L 699.0 1009.0 L 696.0 1007.0 L 698.0 1000.0 L 697.0 994.0 L 675.0 1000.0"/>
    <path d="M 592.0 868.0 L 580.0 890.0 L 570.0 903.0 L 558.0 913.0 L 536.0 921.0 L 526.0 931.0 L 515.0 949.0"/>
    <path d="M 342.0 832.0 L 333.0 841.0 L 327.0 844.0 L 309.0 845.0 L 306.0 843.0 L 306.0 836.0 L 312.0 819.0"/>
    <path d="M 515.0 827.0 L 520.0 826.0 L 537.0 817.0 L 562.0 799.0 L 584.0 777.0 L 595.0 763.0 L 600.0 753.0"/>
    <path d="M 611.0 1301.0 L 613.0 1303.0 L 640.0 1304.0 L 652.0 1301.0 L 659.0 1297.0 L 661.0 1294.0 L 662.0 1279.0"/>
    <path d="M 516.0 481.0 L 520.0 491.0 L 526.0 497.0 L 536.0 501.0 L 543.0 501.0 L 551.0 498.0 L 561.0 488.0"/>
    <path d="M 726.0 705.0 L 728.0 706.0 L 734.0 719.0 L 743.0 728.0 L 751.0 732.0 L 770.0 735.0 L 777.0 741.0"/>
    <path d="M 499.0 886.0 L 495.0 889.0 L 495.0 892.0 L 497.0 894.0 L 501.0 894.0 L 503.0 892.0 L 503.0 889.0"/>
    <path d="M 453.0 839.0 L 451.0 841.0 L 451.0 846.0 L 457.0 848.0 L 460.0 845.0 L 460.0 842.0 L 458.0 839.0"/>
    <path d="M 578.0 843.0 L 575.0 840.0 L 571.0 840.0 L 569.0 842.0 L 569.0 847.0 L 575.0 849.0 L 578.0 846.0"/>
    <path d="M 617.0 809.0 L 619.0 807.0 L 623.0 807.0 L 625.0 809.0 L 625.0 814.0 L 619.0 816.0 L 617.0 814.0"/>
    <path d="M 568.0 521.0 L 566.0 519.0 L 562.0 519.0 L 560.0 523.0 L 563.0 527.0 L 565.0 527.0 L 568.0 524.0"/>
    <path d="M 380.0 767.0 L 378.0 765.0 L 374.0 765.0 L 371.0 769.0 L 372.0 772.0 L 378.0 773.0 L 380.0 771.0"/>
    <path d="M 518.0 907.0 L 518.0 903.0 L 516.0 901.0 L 513.0 901.0 L 511.0 903.0 L 512.0 908.0 L 515.0 909.0"/>
    <path d="M 553.0 567.0 L 556.0 556.0 L 560.0 556.0 L 562.0 560.0 L 567.0 564.0 L 567.0 567.0"/>
    <path d="M 104.0 569.0 L 103.0 567.0 L 108.0 545.0 L 116.0 534.0 L 121.0 521.0 L 128.0 516.0"/>
    <path d="M 949.0 650.0 L 946.0 638.0 L 942.0 630.0 L 938.0 626.0 L 935.0 627.0 L 928.0 635.0"/>
    <path d="M 325.0 154.0 L 326.0 151.0 L 332.0 146.0 L 351.0 138.0 L 362.0 136.0 L 375.0 138.0"/>
    <path d="M 158.0 543.0 L 148.0 551.0 L 141.0 563.0 L 137.0 580.0 L 138.0 592.0 L 140.0 594.0"/>
    <path d="M 247.0 467.0 L 246.0 453.0 L 241.0 443.0 L 222.0 417.0 L 218.0 406.0 L 217.0 394.0"/>
    <path d="M 532.0 561.0 L 534.0 556.0 L 538.0 556.0 L 540.0 560.0 L 545.0 564.0 L 545.0 567.0"/>
    <path d="M 118.0 1153.0 L 129.0 1150.0 L 146.0 1135.0 L 148.0 1130.0 L 148.0 1120.0 L 144.0 1109.0"/>
    <path d="M 481.0 567.0 L 482.0 563.0 L 487.0 559.0 L 488.0 556.0 L 493.0 556.0 L 494.0 561.0"/>
    <path d="M 426.0 753.0 L 442.0 775.0 L 463.0 796.0 L 488.0 815.0 L 508.0 826.0 L 513.0 827.0"/>
    <path d="M 406.0 285.0 L 390.0 277.0 L 372.0 277.0 L 369.0 275.0 L 363.0 275.0 L 361.0 277.0"/>
    <path d="M 158.0 542.0 L 149.0 538.0 L 141.0 538.0 L 128.0 543.0 L 118.0 552.0 L 107.0 569.0"/>
    <path d="M 933.0 803.0 L 938.0 791.0 L 937.0 776.0 L 931.0 774.0 L 923.0 774.0 L 906.0 781.0"/>
    <path d="M 49.0 880.0 L 53.0 906.0 L 62.0 923.0 L 80.0 940.0 L 93.0 946.0 L 102.0 947.0"/>
    <path d="M 140.0 594.0 L 148.0 588.0 L 158.0 588.0 L 163.0 594.0 L 164.0 606.0 L 166.0 608.0"/>
    <path d="M 920.0 947.0 L 930.0 946.0 L 942.0 940.0 L 958.0 925.0 L 970.0 903.0 L 972.0 887.0"/>
    <path d="M 88.0 803.0 L 82.0 784.0 L 83.0 779.0 L 86.0 775.0 L 99.0 774.0 L 116.0 781.0"/>
    <path d="M 933.0 1123.0 L 933.0 1104.0 L 945.0 1076.0 L 948.0 1062.0 L 947.0 1043.0 L 937.0 1025.0"/>
    <path d="M 474.0 684.0 L 472.0 694.0 L 467.0 695.0 L 465.0 690.0 L 460.0 686.0 L 460.0 682.0"/>
    <path d="M 67.0 989.0 L 65.0 993.0 L 65.0 1002.0 L 67.0 1008.0 L 77.0 1019.0 L 84.0 1024.0"/>
    <path d="M 713.0 174.0 L 713.0 171.0 L 706.0 158.0 L 689.0 143.0 L 665.0 136.0 L 650.0 138.0"/>
    <path d="M 917.0 573.0 L 906.0 556.0 L 893.0 543.0 L 881.0 538.0 L 873.0 538.0 L 865.0 542.0"/>
    <path d="M 545.0 570.0 L 555.0 593.0 L 558.0 604.0 L 559.0 632.0 L 555.0 652.0 L 543.0 683.0"/>
    <path d="M 532.0 683.0 L 540.0 660.0 L 545.0 628.0 L 543.0 598.0 L 539.0 584.0 L 533.0 571.0"/>
    <path d="M 893.0 902.0 L 908.0 901.0 L 917.0 894.0 L 924.0 884.0 L 931.0 881.0 L 937.0 881.0"/>
    <path d="M 927.0 635.0 L 921.0 622.0 L 913.0 614.0 L 909.0 613.0 L 899.0 631.0 L 894.0 650.0"/>
    <path d="M 569.0 484.0 L 575.0 496.0 L 583.0 501.0 L 592.0 501.0 L 599.0 498.0 L 612.0 485.0"/>
    <path d="M 591.0 544.0 L 596.0 548.0 L 604.0 546.0 L 609.0 548.0 L 607.0 552.0 L 596.0 557.0"/>
    <path d="M 946.0 834.0 L 947.0 828.0 L 950.0 823.0 L 947.0 818.0 L 935.0 814.0 L 924.0 813.0"/>
    <path d="M 645.0 161.0 L 636.0 164.0 L 627.0 174.0 L 614.0 178.0 L 606.0 186.0 L 603.0 194.0"/>
    <path d="M 831.0 445.0 L 844.0 435.0 L 850.0 424.0 L 852.0 415.0 L 835.0 412.0 L 821.0 417.0"/>
    <path d="M 433.0 751.0 L 435.0 757.0 L 443.0 767.0 L 470.0 794.0 L 490.0 809.0 L 513.0 821.0"/>
    <path d="M 954.0 988.0 L 953.0 985.0 L 957.0 964.0 L 977.0 917.0 L 978.0 889.0 L 976.0 885.0"/>
    <path d="M 196.0 564.0 L 210.0 574.0 L 228.0 573.0 L 235.0 569.0 L 230.0 560.0 L 228.0 552.0"/>
    <path d="M 881.0 765.0 L 878.0 759.0 L 871.0 752.0 L 858.0 754.0 L 845.0 764.0 L 835.0 779.0"/>
    <path d="M 713.0 820.0 L 717.0 830.0 L 717.0 844.0 L 698.0 844.0 L 692.0 841.0 L 683.0 832.0"/>
    <path d="M 538.0 526.0 L 535.0 526.0 L 533.0 524.0 L 533.0 521.0 L 537.0 518.0 L 540.0 518.0"/>
    <path d="M 197.0 618.0 L 194.0 620.0 L 189.0 635.0 L 188.0 660.0 L 195.0 680.0 L 206.0 692.0"/>
    <path d="M 826.0 620.0 L 829.0 623.0 L 833.0 638.0 L 833.0 663.0 L 828.0 678.0 L 817.0 692.0"/>
    <path d="M 489.0 523.0 L 486.0 519.0 L 481.0 519.0 L 477.0 522.0 L 481.0 526.0 L 486.0 526.0"/>
    <path d="M 647.0 769.0 L 647.0 764.0 L 645.0 762.0 L 641.0 762.0 L 639.0 764.0 L 640.0 770.0"/>
    <path d="M 594.0 523.0 L 590.0 519.0 L 584.0 521.0 L 584.0 524.0 L 586.0 526.0 L 591.0 526.0"/>
    <path d="M 443.0 522.0 L 440.0 519.0 L 436.0 519.0 L 433.0 524.0 L 439.0 527.0 L 443.0 524.0"/>
    <path d="M 508.0 560.0 L 511.0 555.0 L 515.0 555.0 L 517.0 557.0 L 517.0 560.0"/>
    <path d="M 407.0 210.0 L 403.0 205.0 L 401.0 196.0 L 394.0 189.0 L 378.0 181.0"/>
    <path d="M 949.0 650.0 L 984.0 621.0 L 995.0 616.0 L 1004.0 616.0 L 1009.0 618.0"/>
    <path d="M 540.0 693.0 L 540.0 696.0 L 538.0 698.0 L 534.0 698.0 L 529.0 687.0"/>
    <path d="M 390.0 1171.0 L 390.0 1176.0 L 385.0 1183.0 L 385.0 1188.0 L 391.0 1193.0"/>
    <path d="M 77.0 837.0 L 77.0 832.0 L 73.0 821.0 L 82.0 816.0 L 98.0 813.0"/>
    <path d="M 203.0 1155.0 L 193.0 1159.0 L 188.0 1164.0 L 185.0 1171.0 L 193.0 1174.0"/>
    <path d="M 919.0 1115.0 L 915.0 1122.0 L 902.0 1135.0 L 901.0 1146.0 L 903.0 1152.0"/>
    <path d="M 881.0 594.0 L 874.0 588.0 L 864.0 588.0 L 860.0 592.0 L 856.0 606.0"/>
    <path d="M 73.0 649.0 L 39.0 621.0 L 27.0 616.0 L 19.0 616.0 L 15.0 618.0"/>
    <path d="M 119.0 778.0 L 113.0 753.0 L 115.0 749.0 L 127.0 752.0 L 140.0 765.0"/>
    <path d="M 618.0 210.0 L 626.0 194.0 L 635.0 187.0 L 642.0 184.0 L 647.0 179.0"/>
    <path d="M 938.0 542.0 L 938.0 552.0 L 931.0 559.0 L 925.0 579.0 L 923.0 581.0"/>
    <path d="M 713.0 548.0 L 716.0 538.0 L 716.0 530.0 L 714.0 522.0 L 712.0 520.0"/>
    <path d="M 366.0 180.0 L 362.0 184.0 L 348.0 191.0 L 341.0 199.0 L 341.0 202.0"/>
    <path d="M 216.0 393.0 L 211.0 394.0 L 202.0 402.0 L 200.0 407.0 L 200.0 415.0"/>
    <path d="M 690.0 541.0 L 683.0 532.0 L 678.0 531.0 L 677.0 544.0 L 673.0 550.0"/>
    <path d="M 445.0 710.0 L 438.0 714.0 L 430.0 723.0 L 422.0 735.0 L 415.0 750.0"/>
    <path d="M 446.0 711.0 L 446.0 726.0 L 443.0 745.0 L 441.0 748.0 L 434.0 750.0"/>
    <path d="M 104.0 947.0 L 114.0 945.0 L 122.0 937.0 L 125.0 930.0 L 125.0 915.0"/>
    <path d="M 568.0 120.0 L 558.0 111.0 L 544.0 106.0 L 527.0 105.0 L 518.0 108.0"/>
    <path d="M 500.0 106.0 L 483.0 105.0 L 473.0 108.0 L 462.0 115.0 L 456.0 122.0"/>
    <path d="M 445.0 556.0 L 448.0 556.0 L 450.0 558.0 L 449.0 569.0 L 445.0 570.0"/>
    <path d="M 149.0 934.0 L 164.0 917.0 L 174.0 912.0 L 179.0 928.0 L 178.0 954.0"/>
    <path d="M 581.0 569.0 L 577.0 568.0 L 576.0 559.0 L 578.0 556.0 L 582.0 556.0"/>
    <path d="M 433.0 483.0 L 433.0 487.0 L 431.0 489.0 L 427.0 487.0 L 427.0 483.0"/>
    <path d="M 124.0 914.0 L 120.0 915.0 L 110.0 927.0 L 105.0 937.0 L 103.0 946.0"/>
    <path d="M 196.0 492.0 L 210.0 488.0 L 224.0 489.0 L 229.0 488.0 L 233.0 485.0"/>
    <path d="M 614.0 483.0 L 616.0 481.0 L 619.0 481.0 L 623.0 477.0 L 622.0 468.0"/>
    <path d="M 404.0 468.0 L 392.0 449.0 L 398.0 448.0 L 408.0 453.0 L 414.0 452.0"/>
    <path d="M 638.0 136.0 L 628.0 131.0 L 612.0 130.0 L 593.0 137.0 L 583.0 147.0"/>
    <path d="M 775.0 468.0 L 766.0 475.0 L 761.0 493.0 L 766.0 509.0 L 776.0 518.0"/>
    <path d="M 882.0 594.0 L 884.0 583.0 L 882.0 567.0 L 875.0 553.0 L 865.0 543.0"/>
    <path d="M 354.0 550.0 L 349.0 545.0 L 346.0 531.0 L 341.0 533.0 L 336.0 541.0"/>
    <path d="M 354.0 550.0 L 356.0 556.0 L 365.0 564.0 L 377.0 569.0 L 401.0 569.0"/>
    <path d="M 85.0 881.0 L 96.0 883.0 L 109.0 898.0 L 117.0 902.0 L 129.0 902.0"/>
    <path d="M 714.0 549.0 L 724.0 549.0 L 725.0 556.0 L 722.0 564.0 L 710.0 575.0"/>
    <path d="M 518.0 466.0 L 515.0 469.0 L 516.0 472.0 L 513.0 475.0 L 509.0 472.0"/>
    <path d="M 195.0 491.0 L 199.0 480.0 L 199.0 474.0 L 188.0 471.0 L 180.0 473.0"/>
    <path d="M 403.0 1027.0 L 403.0 1020.0 L 413.0 1004.0 L 418.0 999.0 L 427.0 999.0"/>
    <path d="M 114.0 613.0 L 110.0 614.0 L 102.0 622.0 L 98.0 629.0 L 97.0 635.0"/>
    <path d="M 456.0 488.0 L 452.0 495.0 L 443.0 501.0 L 431.0 500.0 L 418.0 489.0"/>
    <path d="M 420.0 520.0 L 423.0 520.0 L 425.0 522.0 L 425.0 524.0 L 421.0 527.0"/>
    <path d="M 174.0 1095.0 L 177.0 1095.0 L 180.0 1092.0 L 180.0 1079.0 L 176.0 1069.0"/>
    <path d="M 492.0 572.0 L 483.0 601.0 L 482.0 634.0 L 486.0 657.0 L 493.0 682.0"/>
    <path d="M 570.0 468.0 L 571.0 471.0 L 568.0 474.0 L 565.0 473.0 L 562.0 476.0"/>
    <path d="M 955.0 989.0 L 956.0 1002.0 L 953.0 1009.0 L 944.0 1019.0 L 937.0 1024.0"/>
    <path d="M 310.0 549.0 L 301.0 549.0 L 299.0 553.0 L 304.0 566.0 L 316.0 575.0"/>
    <path d="M 895.0 915.0 L 895.0 925.0 L 899.0 937.0 L 906.0 944.0 L 918.0 947.0"/>
    <path d="M 519.0 1108.0 L 489.0 1107.0 L 449.0 1101.0 L 422.0 1093.0 L 399.0 1083.0"/>
    <path d="M 593.0 482.0 L 594.0 487.0 L 597.0 487.0 L 599.0 485.0 L 599.0 482.0"/>
    <path d="M 624.0 570.0 L 650.0 569.0 L 663.0 563.0 L 672.0 554.0 L 673.0 550.0"/>
    <path d="M 347.0 741.0 L 343.0 744.0 L 332.0 759.0 L 316.0 773.0"/>
    <path d="M 508.0 694.0 L 511.0 698.0 L 515.0 698.0 L 517.0 694.0"/>
    <path d="M 908.0 749.0 L 900.0 750.0 L 892.0 754.0 L 881.0 765.0"/>
    <path d="M 583.0 557.0 L 583.0 559.0 L 587.0 561.0 L 589.0 565.0"/>
    <path d="M 507.0 683.0 L 505.0 643.0 L 505.0 595.0 L 507.0 571.0"/>
    <path d="M 507.0 683.0 L 511.0 686.0 L 516.0 686.0 L 518.0 684.0"/>
    <path d="M 313.0 180.0 L 311.0 185.0 L 311.0 202.0 L 313.0 206.0"/>
    <path d="M 325.0 154.0 L 318.0 162.0 L 312.0 177.0 L 313.0 178.0"/>
    <path d="M 653.0 1002.0 L 652.0 998.0 L 661.0 994.0 L 671.0 983.0"/>
    <path d="M 507.0 166.0 L 509.0 162.0 L 509.0 154.0 L 507.0 149.0"/>
    <path d="M 518.0 683.0 L 521.0 642.0 L 521.0 601.0 L 519.0 570.0"/>
    <path d="M 568.0 396.0 L 572.0 401.0 L 574.0 409.0 L 576.0 411.0"/>
    <path d="M 507.0 133.0 L 500.0 138.0 L 482.0 143.0 L 474.0 150.0"/>
    <path d="M 490.0 309.0 L 494.0 310.0 L 503.0 318.0 L 505.0 318.0"/>
    <path d="M 117.0 1152.0 L 119.0 1147.0 L 118.0 1135.0 L 101.0 1116.0"/>
    <path d="M 461.0 138.0 L 455.0 144.0 L 453.0 154.0 L 451.0 156.0"/>
    <path d="M 714.0 180.0 L 715.0 198.0 L 714.0 204.0 L 712.0 206.0"/>
    <path d="M 850.0 1123.0 L 856.0 1115.0 L 866.0 1112.0 L 874.0 1105.0"/>
    <path d="M 441.0 286.0 L 438.0 287.0 L 430.0 295.0 L 425.0 304.0"/>
    <path d="M 359.0 202.0 L 352.0 206.0 L 345.0 213.0 L 343.0 220.0"/>
    <path d="M 200.0 744.0 L 173.0 741.0 L 153.0 737.0 L 139.0 732.0"/>
    <path d="M 602.0 858.0 L 597.0 859.0 L 593.0 863.0 L 592.0 867.0"/>
    <path d="M 724.0 590.0 L 722.0 584.0 L 718.0 580.0 L 710.0 576.0"/>
    <path d="M 426.0 190.0 L 418.0 180.0 L 412.0 177.0 L 408.0 177.0"/>
    <path d="M 526.0 1062.0 L 500.0 1048.0 L 467.0 1034.0 L 438.0 1014.0"/>
    <path d="M 49.0 880.0 L 51.0 872.0 L 58.0 860.0 L 76.0 842.0"/>
    <path d="M 519.0 217.0 L 533.0 202.0 L 546.0 195.0 L 555.0 194.0"/>
    <path d="M 437.0 305.0 L 432.0 312.0 L 431.0 318.0 L 429.0 320.0"/>
    <path d="M 412.0 248.0 L 417.0 240.0 L 426.0 231.0 L 442.0 221.0"/>
    <path d="M 314.0 206.0 L 317.0 203.0 L 318.0 198.0 L 326.0 189.0"/>
    <path d="M 126.0 914.0 L 137.0 918.0 L 144.0 925.0 L 149.0 934.0"/>
    <path d="M 567.0 140.0 L 571.0 144.0 L 573.0 153.0 L 575.0 155.0"/>
    <path d="M 501.0 172.0 L 499.0 172.0 L 494.0 179.0 L 496.0 188.0"/>
    <path d="M 565.0 681.0 L 562.0 683.0 L 558.0 683.0 L 556.0 681.0"/>
    <path d="M 361.0 277.0 L 358.0 275.0 L 358.0 273.0 L 364.0 265.0"/>
    <path d="M 519.0 570.0 L 514.0 566.0 L 512.0 566.0 L 508.0 570.0"/>
    <path d="M 776.0 469.0 L 781.0 480.0 L 786.0 485.0 L 790.0 486.0"/>
    <path d="M 542.0 148.0 L 536.0 142.0 L 526.0 138.0 L 524.0 134.0"/>
    <path d="M 582.0 220.0 L 598.0 230.0 L 606.0 238.0 L 613.0 250.0"/>
    <path d="M 417.0 539.0 L 414.0 541.0 L 384.0 548.0 L 354.0 550.0"/>
    <path d="M 607.0 519.0 L 602.0 522.0 L 602.0 525.0 L 606.0 527.0"/>
    <path d="M 365.0 734.0 L 388.0 746.0 L 406.0 751.0 L 414.0 751.0"/>
    <path d="M 407.0 178.0 L 407.0 180.0 L 413.0 186.0 L 416.0 195.0"/>
    <path d="M 466.0 1255.0 L 468.0 1253.0 L 481.0 1251.0 L 495.0 1244.0"/>
    <path d="M 585.0 165.0 L 580.0 170.0 L 577.0 178.0 L 574.0 181.0"/>
    <path d="M 486.0 693.0 L 487.0 697.0 L 492.0 697.0 L 493.0 693.0"/>
    <path d="M 506.0 149.0 L 500.0 155.0 L 494.0 158.0 L 486.0 168.0"/>
    <path d="M 380.0 159.0 L 379.0 158.0 L 381.0 150.0 L 385.0 145.0"/>
    <path d="M 645.0 205.0 L 643.0 205.0 L 633.0 214.0 L 631.0 220.0"/>
    <path d="M 570.0 124.0 L 576.0 132.0 L 577.0 148.0 L 579.0 150.0"/>
    <path d="M 608.0 514.0 L 611.0 513.0 L 611.0 509.0 L 609.0 507.0"/>
    <path d="M 579.0 711.0 L 578.0 720.0 L 582.0 746.0 L 593.0 750.0"/>
    <path d="M 443.0 558.0 L 442.0 561.0 L 438.0 562.0 L 437.0 566.0"/>
    <path d="M 387.0 145.0 L 393.0 142.0 L 404.0 142.0 L 412.0 146.0"/>
    <path d="M 824.0 491.0 L 813.0 488.0 L 798.0 489.0 L 791.0 486.0"/>
    <path d="M 426.0 858.0 L 432.0 860.0 L 435.0 863.0 L 436.0 867.0"/>
    <path d="M 406.0 177.0 L 398.0 174.0 L 387.0 164.0 L 380.0 161.0"/>
    <path d="M 662.0 1042.0 L 659.0 1032.0 L 648.0 1017.0 L 653.0 1011.0"/>
    <path d="M 558.0 283.0 L 557.0 280.0 L 559.0 272.0 L 554.0 270.0"/>
    <path d="M 403.0 1158.0 L 404.0 1167.0 L 401.0 1170.0 L 394.0 1168.0"/>
    <path d="M 789.0 569.0 L 798.0 574.0 L 813.0 574.0 L 827.0 565.0"/>
    <path d="M 353.0 221.0 L 353.0 217.0 L 361.0 207.0 L 361.0 204.0"/>
    <path d="M 662.0 1277.0 L 663.0 1265.0 L 670.0 1250.0 L 670.0 1233.0"/>
    <path d="M 663.0 265.0 L 668.0 273.0 L 668.0 276.0 L 665.0 277.0"/>
    <path d="M 872.0 933.0 L 876.0 926.0 L 884.0 918.0 L 894.0 914.0"/>
    <path d="M 610.0 751.0 L 629.0 749.0 L 640.0 745.0 L 658.0 735.0"/>
    <path d="M 837.0 1171.0 L 835.0 1165.0 L 828.0 1158.0 L 819.0 1155.0"/>
    <path d="M 365.0 165.0 L 357.0 171.0 L 344.0 177.0 L 338.0 185.0"/>
    <path d="M 518.0 115.0 L 523.0 113.0 L 536.0 113.0 L 541.0 115.0"/>
    <path d="M 657.0 160.0 L 667.0 160.0 L 684.0 168.0 L 688.0 172.0"/>
    <path d="M 314.0 519.0 L 311.0 522.0 L 308.0 533.0 L 311.0 548.0"/>
    <path d="M 387.0 136.0 L 406.0 129.0 L 420.0 130.0 L 428.0 134.0"/>
    <path d="M 381.0 311.0 L 376.0 305.0 L 371.0 303.0 L 376.0 298.0"/>
    <path d="M 439.0 258.0 L 434.0 260.0 L 424.0 270.0 L 420.0 279.0"/>
    <path d="M 972.0 878.0 L 971.0 871.0 L 966.0 862.0 L 946.0 840.0"/>
    <path d="M 603.0 857.0 L 606.0 852.0 L 638.0 831.0 L 656.0 815.0"/>
    <path d="M 504.0 218.0 L 492.0 203.0 L 480.0 196.0 L 471.0 194.0"/>
    <path d="M 609.0 750.0 L 598.0 728.0 L 582.0 711.0 L 580.0 711.0"/>
    <path d="M 651.0 1254.0 L 651.0 1242.0 L 653.0 1235.0 L 672.0 1211.0"/>
    <path d="M 470.0 270.0 L 466.0 271.0 L 465.0 275.0 L 471.0 284.0"/>
    <path d="M 899.0 913.0 L 909.0 922.0 L 917.0 936.0 L 919.0 946.0"/>
    <path d="M 597.0 170.0 L 611.0 161.0 L 632.0 155.0 L 643.0 154.0"/>
    <path d="M 656.0 210.0 L 657.0 214.0 L 664.0 221.0 L 666.0 226.0"/>
    <path d="M 368.0 160.0 L 353.0 162.0 L 346.0 165.0 L 337.0 172.0"/>
    <path d="M 960.0 564.0 L 958.0 548.0 L 949.0 541.0 L 939.0 541.0"/>
    <path d="M 540.0 242.0 L 531.0 246.0 L 520.0 257.0"/>
    <path d="M 471.0 408.0 L 458.0 417.0 L 455.0 422.0"/>
    <path d="M 471.0 408.0 L 474.0 410.0 L 472.0 423.0"/>
    <path d="M 516.0 150.0 L 516.0 161.0 L 518.0 166.0"/>
    <path d="M 211.0 597.0 L 203.0 606.0 L 198.0 617.0"/>
    <path d="M 617.0 238.0 L 616.0 248.0 L 614.0 250.0"/>
    <path d="M 585.0 371.0 L 588.0 361.0 L 588.0 353.0"/>
    <path d="M 497.0 258.0 L 487.0 251.0 L 469.0 246.0"/>
    <path d="M 465.0 225.0 L 459.0 219.0 L 456.0 213.0"/>
    <path d="M 543.0 410.0 L 544.0 406.0 L 548.0 403.0"/>
    <path d="M 651.0 1255.0 L 658.0 1277.0 L 661.0 1278.0"/>
    <path d="M 569.0 282.0 L 567.0 273.0 L 568.0 271.0"/>
    <path d="M 921.0 1115.0 L 923.0 1121.0 L 930.0 1126.0"/>
    <path d="M 644.0 312.0 L 629.0 314.0 L 622.0 317.0"/>
    <path d="M 636.0 228.0 L 639.0 227.0 L 644.0 219.0"/>
    <path d="M 495.0 189.0 L 488.0 187.0 L 482.0 182.0"/>
    <path d="M 447.0 149.0 L 449.0 136.0 L 455.0 125.0"/>
    <path d="M 647.0 588.0 L 639.0 582.0 L 632.0 580.0"/>
    <path d="M 406.0 381.0 L 401.0 383.0 L 404.0 388.0"/>
    <path d="M 486.0 117.0 L 489.0 115.0 L 506.0 116.0"/>
    <path d="M 548.0 357.0 L 533.0 363.0 L 519.0 378.0"/>
    <path d="M 566.0 491.0 L 569.0 497.0 L 578.0 506.0"/>
    <path d="M 829.0 492.0 L 835.0 497.0 L 839.0 498.0"/>
    <path d="M 538.0 285.0 L 529.0 290.0 L 518.0 303.0"/>
    <path d="M 457.0 211.0 L 461.0 211.0 L 470.0 215.0"/>
    <path d="M 495.0 323.0 L 489.0 319.0 L 474.0 315.0"/>
    <path d="M 470.0 680.0 L 468.0 682.0 L 461.0 681.0"/>
    <path d="M 618.0 286.0 L 620.0 276.0 L 624.0 267.0"/>
    <path d="M 518.0 693.0 L 521.0 690.0 L 521.0 687.0"/>
    <path d="M 646.0 204.0 L 648.0 197.0 L 647.0 179.0"/>
    <path d="M 518.0 284.0 L 526.0 275.0 L 537.0 269.0"/>
    <path d="M 582.0 448.0 L 590.0 441.0 L 597.0 438.0"/>
    <path d="M 406.0 371.0 L 419.0 375.0 L 430.0 384.0"/>
    <path d="M 543.0 233.0 L 550.0 230.0 L 560.0 229.0"/>
    <path d="M 534.0 413.0 L 524.0 418.0 L 517.0 426.0"/>
    <path d="M 491.0 451.0 L 489.0 453.0 L 488.0 452.0"/>
    <path d="M 582.0 569.0 L 585.0 566.0 L 588.0 566.0"/>
    <path d="M 620.0 452.0 L 623.0 449.0 L 633.0 448.0"/>
    <path d="M 599.0 249.0 L 605.0 254.0 L 610.0 262.0"/>
    <path d="M 651.0 296.0 L 656.0 291.0 L 655.0 287.0"/>
    <path d="M 104.0 572.0 L 103.0 579.0 L 100.0 584.0"/>
    <path d="M 614.0 414.0 L 623.0 404.0 L 623.0 401.0"/>
    <path d="M 420.0 548.0 L 423.0 546.0 L 434.0 547.0"/>
    <path d="M 361.0 233.0 L 360.0 228.0 L 373.0 210.0"/>
    <path d="M 433.0 338.0 L 438.0 327.0 L 444.0 322.0"/>
    <path d="M 613.0 305.0 L 607.0 322.0 L 606.0 331.0"/>
    <path d="M 448.0 466.0 L 446.0 465.0 L 445.0 461.0"/>
    <path d="M 364.0 732.0 L 358.0 728.0 L 355.0 728.0"/>
    <path d="M 606.0 531.0 L 610.0 534.0 L 610.0 538.0"/>
    <path d="M 378.0 258.0 L 390.0 261.0 L 401.0 267.0"/>
    <path d="M 671.0 251.0 L 675.0 258.0 L 663.0 264.0"/>
    <path d="M 506.0 443.0 L 496.0 434.0 L 486.0 430.0"/>
    <path d="M 539.0 477.0 L 538.0 483.0 L 531.0 482.0"/>
    <path d="M 355.0 252.0 L 351.0 258.0 L 364.0 263.0"/>
    <path d="M 467.0 349.0 L 467.0 346.0 L 463.0 345.0"/>
    <path d="M 99.0 856.0 L 89.0 867.0 L 84.0 880.0"/>
    <path d="M 426.0 168.0 L 417.0 162.0 L 390.0 156.0"/>
    <path d="M 566.0 327.0 L 577.0 332.0 L 581.0 336.0"/>
    <path d="M 459.0 201.0 L 465.0 202.0 L 481.0 209.0"/>
    <path d="M 586.0 305.0 L 591.0 310.0 L 596.0 319.0"/>
    <path d="M 466.0 361.0 L 469.0 362.0 L 469.0 368.0"/>
    <path d="M 555.0 295.0 L 558.0 290.0 L 558.0 285.0"/>
    <path d="M 608.0 566.0 L 610.0 565.0 L 622.0 569.0"/>
    <path d="M 486.0 460.0 L 493.0 458.0 L 500.0 461.0"/>
    <path d="M 782.0 723.0 L 782.0 737.0 L 779.0 741.0"/>
    <path d="M 604.0 285.0 L 593.0 272.0 L 581.0 266.0"/>
    <path d="M 492.0 345.0 L 484.0 342.0 L 475.0 342.0"/>
    <path d="M 466.0 472.0 L 466.0 474.0 L 462.0 478.0"/>
    <path d="M 531.0 1132.0 L 527.0 1127.0 L 527.0 1121.0"/>
    <path d="M 617.0 237.0 L 605.0 228.0 L 599.0 220.0"/>
    <path d="M 420.0 1120.0 L 423.0 1120.0 L 430.0 1115.0"/>
    <path d="M 574.0 540.0 L 574.0 542.0 L 581.0 548.0"/>
    <path d="M 467.0 571.0 L 466.0 568.0 L 460.0 568.0"/>
    <path d="M 454.0 452.0 L 451.0 441.0 L 451.0 434.0"/>
    <path d="M 480.0 361.0 L 491.0 366.0 L 505.0 382.0"/>
    <path d="M 429.0 135.0 L 436.0 138.0 L 446.0 149.0"/>
    <path d="M 551.0 506.0 L 562.0 496.0 L 565.0 491.0"/>
    <path d="M 508.0 693.0 L 505.0 691.0 L 504.0 687.0"/>
    <path d="M 85.0 626.0 L 77.0 637.0 L 74.0 649.0"/>
    <path d="M 461.0 468.0 L 461.0 472.0 L 457.0 474.0"/>
    <path d="M 412.0 1106.0 L 411.0 1115.0 L 413.0 1120.0"/>
    <path d="M 834.0 606.0 L 842.0 622.0 L 846.0 638.0"/>
    <path d="M 419.0 327.0 L 415.0 311.0 L 412.0 306.0"/>
    <path d="M 604.0 409.0 L 597.0 412.0 L 590.0 418.0"/>
    <path d="M 449.0 471.0 L 454.0 478.0 L 458.0 479.0"/>
    <path d="M 604.0 386.0 L 608.0 383.0 L 620.0 380.0"/>
    <path d="M 633.0 449.0 L 633.0 452.0 L 622.0 467.0"/>
    <path d="M 825.0 619.0 L 820.0 607.0 L 813.0 598.0"/>
    <path d="M 543.0 412.0 L 543.0 415.0 L 538.0 421.0"/>
    <path d="M 431.0 435.0 L 423.0 432.0 L 417.0 432.0"/>
    <path d="M 558.0 247.0 L 543.0 251.0 L 535.0 255.0"/>
    <path d="M 380.0 246.0 L 381.0 248.0 L 395.0 254.0"/>
    <path d="M 561.0 257.0 L 560.0 261.0 L 554.0 269.0"/>
    <path d="M 518.0 561.0 L 521.0 563.0 L 521.0 567.0"/>
    <path d="M 464.0 361.0 L 453.0 371.0 L 443.0 386.0"/>
    <path d="M 525.0 456.0 L 526.0 449.0 L 520.0 448.0"/>
    <path d="M 418.0 515.0 L 415.0 512.0 L 417.0 508.0"/>
    <path d="M 769.0 709.0 L 773.0 711.0 L 782.0 721.0"/>
    <path d="M 439.0 165.0 L 445.0 171.0 L 449.0 181.0"/>
    <path d="M 524.0 352.0 L 531.0 347.0 L 544.0 342.0"/>
    <path d="M 540.0 476.0 L 543.0 476.0 L 547.0 472.0"/>
    <path d="M 427.0 419.0 L 421.0 416.0 L 413.0 415.0"/>
    <path d="M 848.0 1123.0 L 843.0 1112.0 L 846.0 1096.0"/>
    <path d="M 99.0 855.0 L 88.0 851.0 L 78.0 841.0"/>
    <path d="M 484.0 437.0 L 482.0 432.0 L 486.0 430.0"/>
    <path d="M 685.0 198.0 L 678.0 190.0 L 672.0 186.0"/>
    <path d="M 690.0 541.0 L 696.0 532.0 L 711.0 520.0"/>
    <path d="M 690.0 541.0 L 689.0 549.0 L 685.0 556.0"/>
    <path d="M 521.0 476.0 L 526.0 478.0 L 530.0 482.0"/>
    <path d="M 504.0 243.0 L 493.0 230.0 L 484.0 225.0"/>
    <path d="M 409.0 356.0 L 418.0 360.0 L 425.0 366.0"/>
    <path d="M 548.0 434.0 L 546.0 432.0 L 542.0 432.0"/>
    <path d="M 529.0 192.0 L 524.0 200.0 L 519.0 203.0"/>
    <path d="M 540.0 430.0 L 529.0 433.0 L 518.0 444.0"/>
    <path d="M 372.0 245.0 L 369.0 246.0 L 348.0 244.0"/>
    <path d="M 488.0 276.0 L 483.0 273.0 L 471.0 270.0"/>
    <path d="M 575.0 689.0 L 576.0 693.0 L 578.0 694.0"/>
    <path d="M 420.0 527.0 L 418.0 525.0 L 419.0 520.0"/>
    <path d="M 140.0 594.0 L 139.0 598.0 L 141.0 606.0"/>
    <path d="M 586.0 186.0 L 583.0 191.0 L 582.0 199.0"/>
    <path d="M 605.0 285.0 L 610.0 269.0 L 610.0 263.0"/>
    <path d="M 247.0 469.0 L 244.0 477.0 L 236.0 485.0"/>
    <path d="M 588.0 353.0 L 585.0 348.0 L 577.0 341.0"/>
    <path d="M 588.0 353.0 L 591.0 348.0 L 592.0 336.0"/>
    <path d="M 464.0 174.0 L 469.0 178.0 L 474.0 179.0"/>
    <path d="M 675.0 766.0 L 671.0 787.0 L 657.0 814.0"/>
    <path d="M 422.0 442.0 L 435.0 446.0 L 443.0 451.0"/>
    <path d="M 592.0 336.0 L 588.0 328.0 L 580.0 321.0"/>
    <path d="M 592.0 336.0 L 595.0 330.0 L 596.0 319.0"/>
    <path d="M 436.0 353.0 L 441.0 345.0 L 448.0 340.0"/>
    <path d="M 416.0 460.0 L 426.0 457.0 L 427.0 462.0"/>
    <path d="M 565.0 210.0 L 554.0 216.0 L 551.0 216.0"/>
    <path d="M 457.0 268.0 L 458.0 256.0 L 451.0 254.0"/>
    <path d="M 501.0 460.0 L 498.0 449.0 L 505.0 449.0"/>
    <path d="M 596.0 319.0 L 599.0 313.0 L 599.0 306.0"/>
    <path d="M 612.0 147.0 L 624.0 142.0 L 639.0 144.0"/>
    <path d="M 591.0 474.0 L 589.0 478.0 L 593.0 479.0"/>
    <path d="M 449.0 506.0 L 456.0 499.0 L 459.0 493.0"/>
    <path d="M 414.0 261.0 L 417.0 277.0 L 419.0 279.0"/>
    <path d="M 599.0 306.0 L 593.0 295.0 L 585.0 288.0"/>
    <path d="M 599.0 306.0 L 602.0 301.0 L 604.0 286.0"/>
    <path d="M 457.0 487.0 L 460.0 488.0 L 460.0 492.0"/>
    <path d="M 482.0 171.0 L 480.0 174.0 L 481.0 180.0"/>
    <path d="M 574.0 254.0 L 585.0 259.0 L 588.0 262.0"/>
    <path d="M 496.0 191.0 L 496.0 194.0 L 504.0 201.0"/>
    <path d="M 478.0 402.0 L 485.0 403.0 L 490.0 406.0"/>
    <path d="M 559.0 247.0 L 564.0 250.0 L 564.0 253.0"/>
    <path d="M 434.0 481.0 L 439.0 480.0 L 443.0 475.0"/>
    <path d="M 562.0 172.0 L 562.0 162.0 L 558.0 155.0"/>
    <path d="M 455.0 540.0 L 447.0 549.0 L 443.0 551.0"/>
    <path d="M 700.0 227.0 L 703.0 226.0 L 706.0 219.0"/>
    <path d="M 618.0 287.0 L 613.0 299.0 L 613.0 303.0"/>
    <path d="M 428.0 427.0 L 438.0 435.0 L 440.0 435.0"/>
    <path d="M 576.0 411.0 L 579.0 405.0 L 581.0 387.0"/>
    <path d="M 576.0 411.0 L 576.0 420.0 L 574.0 426.0"/>
    <path d="M 461.0 460.0 L 466.0 453.0 L 474.0 448.0"/>
    <path d="M 501.0 129.0 L 488.0 131.0 L 479.0 135.0"/>
    <path d="M 420.0 549.0 L 424.0 553.0 L 433.0 556.0"/>
    <path d="M 547.0 217.0 L 532.0 224.0 L 519.0 237.0"/>
    <path d="M 563.0 462.0 L 560.0 465.0 L 559.0 469.0"/>
    <path d="M 431.0 1065.0 L 415.0 1058.0 L 398.0 1048.0"/>
    <path d="M 544.0 569.0 L 537.0 567.0 L 534.0 570.0"/>
    <path d="M 570.0 478.0 L 573.0 477.0 L 576.0 472.0"/>
    <path d="M 412.0 306.0 L 413.0 303.0 L 407.0 286.0"/>
    <path d="M 412.0 306.0 L 401.0 298.0 L 394.0 296.0"/>
    <path d="M 189.0 606.0 L 182.0 619.0 L 178.0 637.0"/>
    <path d="M 720.0 687.0 L 724.0 695.0 L 725.0 704.0"/>
    <path d="M 343.0 557.0 L 339.0 553.0 L 336.0 542.0"/>
    <path d="M 99.0 1099.0 L 101.0 1113.0 L 100.0 1115.0"/>
    <path d="M 369.0 815.0 L 356.0 793.0 L 347.0 762.0"/>
    <path d="M 370.0 816.0 L 391.0 834.0 L 425.0 855.0"/>
    <path d="M 512.0 491.0 L 508.0 498.0 L 499.0 506.0"/>
    <path d="M 478.0 349.0 L 496.0 360.0 L 505.0 371.0"/>
    <path d="M 646.0 162.0 L 648.0 170.0 L 647.0 179.0"/>
    <path d="M 326.0 229.0 L 334.0 237.0 L 336.0 237.0"/>
    <path d="M 420.0 385.0 L 414.0 382.0 L 407.0 381.0"/>
    <path d="M 379.0 204.0 L 387.0 208.0 L 393.0 218.0"/>
    <path d="M 432.0 215.0 L 439.0 208.0 L 443.0 200.0"/>
    <path d="M 607.0 332.0 L 616.0 325.0 L 627.0 321.0"/>
    <path d="M 532.0 683.0 L 537.0 686.0 L 543.0 683.0"/>
    <path d="M 488.0 268.0 L 494.0 272.0 L 505.0 284.0"/>
    <path d="M 303.0 716.0 L 301.0 714.0 L 299.0 704.0"/>
    <path d="M 439.0 268.0 L 432.0 272.0 L 421.0 285.0"/>
    <path d="M 494.0 692.0 L 497.0 690.0 L 497.0 687.0"/>
    <path d="M 483.0 683.0 L 489.0 686.0 L 493.0 683.0"/>
    <path d="M 567.0 394.0 L 559.0 387.0 L 555.0 381.0"/>
    <path d="M 551.0 422.0 L 549.0 415.0 L 553.0 412.0"/>
    <path d="M 625.0 371.0 L 632.0 362.0 L 628.0 358.0"/>
    <path d="M 184.0 498.0 L 190.0 496.0 L 195.0 492.0"/>
    <path d="M 427.0 368.0 L 429.0 371.0 L 431.0 383.0"/>
    <path d="M 544.0 395.0 L 539.0 400.0 L 526.0 407.0"/>
    <path d="M 482.0 569.0 L 490.0 567.0 L 492.0 570.0"/>
    <path d="M 505.0 409.0 L 501.0 403.0 L 493.0 397.0"/>
    <path d="M 475.0 237.0 L 469.0 234.0 L 461.0 233.0"/>
    <path d="M 640.0 1127.0 L 635.0 1136.0 L 634.0 1143.0"/>
    <path d="M 379.0 161.0 L 377.0 167.0 L 377.0 180.0"/>
    <path d="M 588.0 1094.0 L 568.0 1081.0 L 556.0 1076.0"/>
    <path d="M 417.0 538.0 L 416.0 535.0 L 420.0 531.0"/>
    <path d="M 468.0 247.0 L 462.0 250.0 L 464.0 253.0"/>
    <path d="M 674.0 1218.0 L 675.0 1213.0 L 673.0 1211.0"/>
    <path d="M 789.0 567.0 L 793.0 562.0 L 795.0 552.0"/>
    <path d="M 621.0 345.0 L 619.0 343.0 L 618.0 344.0"/>
    <path d="M 702.0 190.0 L 706.0 194.0 L 711.0 206.0"/>
    <path d="M 563.0 461.0 L 558.0 455.0 L 550.0 453.0"/>
    <path d="M 409.0 1198.0 L 407.0 1196.0 L 392.0 1194.0"/>
    <path d="M 944.0 840.0 L 934.0 851.0 L 924.0 855.0"/>
    <path d="M 568.0 301.0 L 579.0 306.0 L 586.0 312.0"/>
    <path d="M 420.0 286.0 L 423.0 302.0 L 425.0 304.0"/>
    <path d="M 901.0 595.0 L 900.0 578.0 L 897.0 567.0"/>
    <path d="M 563.0 307.0 L 566.0 307.0 L 572.0 311.0"/>
    <path d="M 629.0 252.0 L 626.0 257.0 L 625.0 263.0"/>
    <path d="M 650.0 1255.0 L 637.0 1268.0 L 611.0 1301.0"/>
    <path d="M 478.0 361.0 L 473.0 356.0 L 472.0 351.0"/>
    <path d="M 924.0 856.0 L 935.0 870.0 L 938.0 880.0"/>
    <path d="M 397.0 1047.0 L 398.0 1039.0 L 403.0 1029.0"/>
    <path d="M 620.0 301.0 L 622.0 298.0 L 634.0 294.0"/>
    <path d="M 488.0 123.0 L 498.0 120.0 L 504.0 121.0"/>
    <path d="M 87.0 1127.0 L 92.0 1126.0 L 99.0 1117.0"/>
    <path d="M 438.0 567.0 L 443.0 567.0 L 444.0 569.0"/>
    <path d="M 669.0 728.0 L 664.0 729.0 L 660.0 732.0"/>
    <path d="M 314.0 207.0 L 318.0 220.0 L 322.0 225.0"/>
    <path d="M 574.0 203.0 L 578.0 205.0 L 581.0 203.0"/>
    <path d="M 99.0 813.0 L 104.0 815.0 L 106.0 814.0"/>
    <path d="M 485.0 476.0 L 482.0 476.0 L 478.0 473.0"/>
    <path d="M 451.0 254.0 L 456.0 243.0 L 456.0 237.0"/>
    <path d="M 457.0 269.0 L 458.0 274.0 L 455.0 282.0"/>
    <path d="M 569.0 451.0 L 571.0 449.0 L 572.0 434.0"/>
    <path d="M 539.0 316.0 L 531.0 320.0 L 518.0 335.0"/>
    <path d="M 610.0 497.0 L 613.0 493.0 L 614.0 487.0"/>
    <path d="M 486.0 286.0 L 492.0 289.0 L 504.0 304.0"/>
    <path d="M 621.0 380.0 L 626.0 383.0 L 622.0 388.0"/>
    <path d="M 656.0 194.0 L 676.0 215.0 L 679.0 224.0"/>
    <path d="M 553.0 366.0 L 550.0 366.0 L 548.0 364.0"/>
    <path d="M 674.0 1001.0 L 665.0 1007.0 L 654.0 1011.0"/>
    <path d="M 627.0 265.0 L 640.0 259.0 L 649.0 258.0"/>
    <path d="M 632.0 343.0 L 642.0 333.0 L 639.0 328.0"/>
    <path d="M 651.0 213.0 L 657.0 224.0 L 659.0 233.0"/>
    <path d="M 973.0 879.0 L 976.0 881.0 L 976.0 884.0"/>
    <path d="M 909.0 750.0 L 907.0 766.0 L 903.0 778.0"/>
    <path d="M 482.0 417.0 L 480.0 418.0 L 480.0 421.0"/>
    <path d="M 610.0 539.0 L 638.0 547.0 L 673.0 550.0"/>
    <path d="M 452.0 222.0 L 455.0 224.0 L 454.0 228.0"/>
    <path d="M 447.0 409.0 L 451.0 400.0 L 469.0 382.0"/>
    <path d="M 114.0 613.0 L 125.0 635.0 L 128.0 650.0"/>
    <path d="M 652.0 145.0 L 656.0 143.0 L 663.0 144.0"/>
    <path d="M 652.0 145.0 L 652.0 148.0 L 654.0 150.0"/>
    <path d="M 711.0 207.0 L 709.0 217.0 L 706.0 219.0"/>
    <path d="M 607.0 392.0 L 599.0 395.0 L 591.0 401.0"/>
    <path d="M 549.0 387.0 L 546.0 390.0 L 545.0 394.0"/>
    <path d="M 397.0 1049.0 L 392.0 1073.0 L 398.0 1082.0"/>
    <path d="M 482.0 230.0 L 473.0 226.0 L 466.0 226.0"/>
    <path d="M 151.0 884.0 L 149.0 885.0 L 146.0 894.0"/>
    <path d="M 559.0 571.0 L 562.0 567.0 L 566.0 568.0"/>
    <path d="M 610.0 1124.0 L 600.0 1123.0 L 588.0 1119.0"/>
    <path d="M 621.0 379.0 L 624.0 375.0 L 624.0 372.0"/>
    <path d="M 639.0 1164.0 L 632.0 1157.0 L 628.0 1146.0"/>
    <path d="M 607.0 457.0 L 600.0 457.0 L 599.0 459.0"/>
    <path d="M 681.0 155.0 L 668.0 149.0 L 654.0 150.0"/>
    <path d="M 428.0 463.0 L 431.0 463.0 L 436.0 470.0"/>
    <path d="M 690.0 203.0 L 696.0 213.0 L 698.0 225.0"/>
    <path d="M 456.0 301.0 L 449.0 304.0 L 438.0 313.0"/>
    <path d="M 335.0 541.0 L 331.0 534.0 L 314.0 519.0"/>
    <path d="M 464.0 255.0 L 464.0 261.0 L 470.0 269.0"/>
    <path d="M 404.0 469.0 L 402.0 475.0 L 406.0 481.0"/>
    <path d="M 466.0 156.0 L 463.0 160.0 L 463.0 167.0"/>
    <path d="M 425.0 304.0 L 425.0 311.0 L 428.0 320.0"/>
    <path d="M 387.0 146.0 L 400.0 148.0 L 410.0 153.0"/>
    <path d="M 549.0 180.0 L 552.0 180.0 L 562.0 174.0"/>
    <path d="M 572.0 434.0 L 574.0 432.0 L 574.0 427.0"/>
    <path d="M 422.0 346.0 L 412.0 340.0 L 407.0 339.0"/>
    <path d="M 380.0 218.0 L 382.0 222.0 L 389.0 228.0"/>
    <path d="M 404.0 403.0 L 404.0 405.0 L 407.0 407.0"/>
    <path d="M 468.0 1098.0 L 435.0 1091.0 L 405.0 1079.0"/>
    <path d="M 825.0 473.0 L 836.0 471.0 L 842.0 472.0"/>
    <path d="M 658.0 165.0 L 682.0 176.0 L 690.0 185.0"/>
    <path d="M 439.0 369.0 L 439.0 376.0 L 442.0 386.0"/>
    <path d="M 346.0 154.0 L 359.0 149.0 L 371.0 150.0"/>
    <path d="M 616.0 400.0 L 607.0 401.0 L 604.0 403.0"/>
    <path d="M 336.0 202.0 L 327.0 213.0 L 326.0 223.0"/>
    <path d="M 606.0 449.0 L 594.0 452.0 L 579.0 464.0"/>
    <path d="M 367.0 180.0 L 369.0 186.0 L 369.0 194.0"/>
    <path d="M 447.0 410.0 L 447.0 419.0 L 451.0 434.0"/>
    <path d="M 581.0 387.0 L 583.0 385.0 L 585.0 372.0"/>
    <path d="M 677.0 741.0 L 691.0 758.0 L 708.0 773.0"/>
    <path d="M 563.0 346.0 L 575.0 351.0 L 578.0 355.0"/>
    <path d="M 485.0 692.0 L 482.0 689.0 L 481.0 684.0"/>
    <path d="M 408.0 1100.0 L 405.0 1100.0 L 403.0 1098.0"/>
    <path d="M 655.0 303.0 L 649.0 306.0 L 645.0 311.0"/>
    <path d="M 544.0 685.0 L 544.0 691.0 L 541.0 692.0"/>
    <path d="M 544.0 168.0 L 536.0 159.0 L 517.0 149.0"/>
    <path d="M 432.0 750.0 L 428.0 750.0 L 426.0 752.0"/>
    <path d="M 527.0 506.0 L 517.0 497.0 L 513.0 491.0"/>
    <path d="M 489.0 336.0 L 494.0 338.0 L 503.0 348.0"/>
    <path d="M 127.0 563.0 L 122.0 577.0 L 122.0 600.0"/>
    <path d="M 474.0 383.0 L 482.0 391.0 L 482.0 393.0"/>
    <path d="M 639.0 1115.0 L 646.0 1111.0 L 655.0 1100.0"/>
    <path d="M 552.0 148.0 L 542.0 137.0 L 526.0 132.0"/>
    <path d="M 540.0 439.0 L 542.0 440.0 L 542.0 442.0"/>
    <path d="M 698.0 229.0 L 695.0 234.0 L 685.0 239.0"/>
    <path d="M 418.0 566.0 L 416.0 565.0 L 406.0 568.0"/>
    <path d="M 545.0 125.0 L 534.0 120.0 L 518.0 121.0"/>
    <path d="M 504.0 475.0 L 504.0 472.0"/>
    <path d="M 504.0 475.0 L 495.0 481.0"/>
    <path d="M 504.0 475.0 L 509.0 480.0"/>
    <path d="M 519.0 448.0 L 517.0 445.0"/>
    <path d="M 471.0 408.0 L 475.0 401.0"/>
    <path d="M 416.0 472.0 L 412.0 468.0"/>
    <path d="M 416.0 472.0 L 415.0 477.0"/>
    <path d="M 575.0 465.0 L 569.0 461.0"/>
    <path d="M 513.0 490.0 L 513.0 481.0"/>
    <path d="M 404.0 354.0 L 399.0 354.0"/>
    <path d="M 461.0 479.0 L 458.0 479.0"/>
    <path d="M 576.0 466.0 L 576.0 470.0"/>
    <path d="M 554.0 298.0 L 535.0 307.0"/>
    <path d="M 538.0 439.0 L 531.0 443.0"/>
    <path d="M 610.0 580.0 L 589.0 567.0"/>
    <path d="M 316.0 776.0 L 313.0 778.0"/>
    <path d="M 435.0 547.0 L 443.0 551.0"/>
    <path d="M 382.0 312.0 L 400.0 315.0"/>
    <path d="M 427.0 463.0 L 424.0 465.0"/>
    <path d="M 396.0 332.0 L 388.0 328.0"/>
    <path d="M 828.0 743.0 L 824.0 743.0"/>
    <path d="M 428.0 135.0 L 420.0 136.0"/>
    <path d="M 648.0 138.0 L 639.0 136.0"/>
    <path d="M 552.0 350.0 L 549.0 349.0"/>
    <path d="M 559.0 246.0 L 566.0 236.0"/>
    <path d="M 442.0 335.0 L 449.0 330.0"/>
    <path d="M 636.0 349.0 L 628.0 357.0"/>
    <path d="M 649.0 139.0 L 652.0 145.0"/>
    <path d="M 506.0 319.0 L 506.0 332.0"/>
    <path d="M 477.0 441.0 L 474.0 447.0"/>
    <path d="M 455.0 539.0 L 440.0 539.0"/>
    <path d="M 475.0 368.0 L 479.0 367.0"/>
    <path d="M 552.0 471.0 L 558.0 470.0"/>
    <path d="M 395.0 344.0 L 413.0 349.0"/>
    <path d="M 480.0 568.0 L 474.0 568.0"/>
    <path d="M 419.0 472.0 L 429.0 471.0"/>
    <path d="M 627.0 358.0 L 610.0 365.0"/>
    <path d="M 670.0 728.0 L 675.0 739.0"/>
    <path d="M 458.0 320.0 L 445.0 328.0"/>
    <path d="M 449.0 351.0 L 461.0 345.0"/>
    <path d="M 503.0 471.0 L 490.0 470.0"/>
    <path d="M 579.0 695.0 L 579.0 710.0"/>
    <path d="M 479.0 379.0 L 474.0 382.0"/>
    <path d="M 39.0 601.0 L 46.0 603.0"/>
    <path d="M 409.0 400.0 L 406.0 401.0"/>
    <path d="M 198.0 445.0 L 193.0 445.0"/>
    <path d="M 622.0 400.0 L 618.0 400.0"/>
    <path d="M 419.0 449.0 L 416.0 452.0"/>
    <path d="M 708.0 817.0 L 712.0 819.0"/>
    <path d="M 313.0 818.0 L 316.0 817.0"/>
    <path d="M 596.0 383.0 L 608.0 374.0"/>
    <path d="M 949.0 650.0 L 948.0 655.0"/>
    <path d="M 507.0 683.0 L 504.0 686.0"/>
    <path d="M 398.0 367.0 L 398.0 370.0"/>
    <path d="M 559.0 321.0 L 562.0 333.0"/>
    <path d="M 325.0 154.0 L 328.0 155.0"/>
    <path d="M 468.0 319.0 L 473.0 315.0"/>
    <path d="M 446.0 709.0 L 446.0 695.0"/>
    <path d="M 460.0 235.0 L 468.0 245.0"/>
    <path d="M 402.0 373.0 L 406.0 380.0"/>
    <path d="M 676.0 762.0 L 674.0 743.0"/>
    <path d="M 603.0 363.0 L 600.0 365.0"/>
    <path d="M 621.0 417.0 L 618.0 418.0"/>
    <path d="M 552.0 317.0 L 556.0 319.0"/>
    <path d="M 516.0 480.0 L 520.0 476.0"/>
    <path d="M 895.0 656.0 L 894.0 651.0"/>
    <path d="M 561.0 402.0 L 553.0 396.0"/>
    <path d="M 554.0 363.0 L 550.0 362.0"/>
    <path d="M 592.0 246.0 L 575.0 236.0"/>
    <path d="M 627.0 1107.0 L 620.0 1108.0"/>
    <path d="M 635.0 1111.0 L 638.0 1115.0"/>
    <path d="M 555.0 364.0 L 558.0 369.0"/>
    <path d="M 933.0 804.0 L 924.0 812.0"/>
    <path d="M 145.0 1103.0 L 145.0 1096.0"/>
    <path d="M 145.0 1103.0 L 144.0 1107.0"/>
    <path d="M 145.0 1103.0 L 148.0 1106.0"/>
    <path d="M 903.0 781.0 L 897.0 787.0"/>
    <path d="M 628.0 1107.0 L 634.0 1110.0"/>
    <path d="M 566.0 229.0 L 570.0 227.0"/>
    <path d="M 505.0 219.0 L 505.0 243.0"/>
    <path d="M 343.0 831.0 L 345.0 824.0"/>
    <path d="M 242.0 519.0 L 248.0 519.0"/>
    <path d="M 377.0 298.0 L 393.0 301.0"/>
    <path d="M 499.0 260.0 L 505.0 266.0"/>
    <path d="M 579.0 289.0 L 570.0 283.0"/>
    <path d="M 326.0 225.0 L 326.0 228.0"/>
    <path d="M 399.0 358.0 L 398.0 355.0"/>
    <path d="M 555.0 462.0 L 551.0 460.0"/>
    <path d="M 582.0 150.0 L 579.0 150.0"/>
    <path d="M 563.0 173.0 L 566.0 173.0"/>
    <path d="M 426.0 1107.0 L 414.0 1101.0"/>
    <path d="M 857.0 619.0 L 856.0 607.0"/>
    <path d="M 462.0 355.0 L 458.0 357.0"/>
    <path d="M 498.0 686.0 L 503.0 686.0"/>
    <path d="M 553.0 393.0 L 551.0 387.0"/>
    <path d="M 349.0 743.0 L 347.0 762.0"/>
    <path d="M 544.0 424.0 L 547.0 424.0"/>
    <path d="M 573.0 222.0 L 570.0 227.0"/>
    <path d="M 618.0 230.0 L 619.0 233.0"/>
    <path d="M 464.0 172.0 L 463.0 168.0"/>
    <path d="M 380.0 587.0 L 377.0 591.0"/>
    <path d="M 181.0 1015.0 L 187.0 1015.0"/>
    <path d="M 507.0 133.0 L 507.0 127.0"/>
    <path d="M 507.0 133.0 L 507.0 148.0"/>
    <path d="M 482.0 454.0 L 482.0 451.0"/>
    <path d="M 255.0 708.0 L 242.0 721.0"/>
    <path d="M 380.0 214.0 L 378.0 205.0"/>
    <path d="M 528.0 686.0 L 522.0 686.0"/>
    <path d="M 411.0 1104.0 L 409.0 1101.0"/>
    <path d="M 608.0 566.0 L 596.0 558.0"/>
    <path d="M 608.0 566.0 L 613.0 577.0"/>
    <path d="M 420.0 515.0 L 512.0 514.0"/>
    <path d="M 472.0 562.0 L 473.0 567.0"/>
    <path d="M 517.0 304.0 L 517.0 315.0"/>
    <path d="M 512.0 454.0 L 513.0 463.0"/>
    <path d="M 582.0 549.0 L 585.0 553.0"/>
    <path d="M 555.0 681.0 L 552.0 683.0"/>
    <path d="M 561.0 346.0 L 557.0 346.0"/>
    <path d="M 506.0 410.0 L 506.0 427.0"/>
    <path d="M 187.0 779.0 L 188.0 787.0"/>
    <path d="M 411.0 407.0 L 415.0 407.0"/>
    <path d="M 649.0 315.0 L 645.0 312.0"/>
    <path d="M 496.0 487.0 L 495.0 481.0"/>
    <path d="M 669.0 1232.0 L 662.0 1240.0"/>
    <path d="M 654.0 286.0 L 644.0 287.0"/>
    <path d="M 898.0 912.0 L 892.0 904.0"/>
    <path d="M 545.0 379.0 L 548.0 372.0"/>
    <path d="M 545.0 379.0 L 527.0 389.0"/>
    <path d="M 545.0 379.0 L 550.0 381.0"/>
    <path d="M 497.0 568.0 L 493.0 571.0"/>
    <path d="M 436.0 472.0 L 432.0 476.0"/>
    <path d="M 936.0 1024.0 L 933.0 1024.0"/>
    <path d="M 543.0 455.0 L 542.0 452.0"/>
    <path d="M 563.0 284.0 L 567.0 300.0"/>
    <path d="M 517.0 317.0 L 517.0 334.0"/>
    <path d="M 669.0 185.0 L 666.0 184.0"/>
    <path d="M 74.0 650.0 L 75.0 656.0"/>
    <path d="M 437.0 293.0 L 455.0 283.0"/>
    <path d="M 414.0 426.0 L 411.0 428.0"/>
    <path d="M 498.0 568.0 L 503.0 568.0"/>
    <path d="M 427.0 364.0 L 423.0 347.0"/>
    <path d="M 372.0 285.0 L 361.0 277.0"/>
    <path d="M 560.0 256.0 L 547.0 260.0"/>
    <path d="M 843.0 953.0 L 847.0 960.0"/>
    <path d="M 437.0 414.0 L 434.0 399.0"/>
    <path d="M 482.0 336.0 L 475.0 334.0"/>
    <path d="M 610.0 458.0 L 613.0 467.0"/>
    <path d="M 918.0 574.0 L 921.0 581.0"/>
    <path d="M 678.0 247.0 L 672.0 250.0"/>
    <path d="M 456.0 283.0 L 459.0 283.0"/>
    <path d="M 568.0 461.0 L 564.0 461.0"/>
    <path d="M 528.0 568.0 L 522.0 568.0"/>
    <path d="M 820.0 596.0 L 827.0 604.0"/>
    <path d="M 471.0 299.0 L 466.0 301.0"/>
    <path d="M 609.0 498.0 L 600.0 506.0"/>
    <path d="M 394.0 344.0 L 389.0 347.0"/>
    <path d="M 519.0 195.0 L 519.0 203.0"/>
    <path d="M 490.0 397.0 L 483.0 394.0"/>
    <path d="M 657.0 165.0 L 656.0 161.0"/>
    <path d="M 506.0 112.0 L 499.0 109.0"/>
    <path d="M 545.0 369.0 L 548.0 364.0"/>
    <path d="M 438.0 243.0 L 450.0 236.0"/>
    <path d="M 499.0 109.0 L 487.0 111.0"/>
    <path d="M 516.0 427.0 L 515.0 440.0"/>
    <path d="M 454.0 452.0 L 462.0 440.0"/>
    <path d="M 454.0 452.0 L 455.0 460.0"/>
    <path d="M 565.0 319.0 L 577.0 325.0"/>
    <path d="M 601.0 507.0 L 608.0 507.0"/>
    <path d="M 921.0 597.0 L 922.0 582.0"/>
    <path d="M 390.0 323.0 L 405.0 329.0"/>
    <path d="M 530.0 483.0 L 530.0 487.0"/>
    <path d="M 462.0 168.0 L 459.0 170.0"/>
    <path d="M 618.0 452.0 L 611.0 452.0"/>
    <path d="M 639.0 246.0 L 630.0 251.0"/>
    <path d="M 550.0 317.0 L 539.0 320.0"/>
    <path d="M 513.0 515.0 L 513.0 518.0"/>
    <path d="M 598.0 213.0 L 598.0 217.0"/>
    <path d="M 362.0 202.0 L 369.0 194.0"/>
    <path d="M 709.0 575.0 L 702.0 576.0"/>
    <path d="M 479.0 378.0 L 475.0 370.0"/>
    <path d="M 473.0 334.0 L 470.0 336.0"/>
    <path d="M 800.0 549.0 L 796.0 551.0"/>
    <path d="M 203.0 595.0 L 197.0 602.0"/>
    <path d="M 568.0 199.0 L 571.0 196.0"/>
    <path d="M 410.0 399.0 L 421.0 402.0"/>
    <path d="M 709.0 552.0 L 713.0 549.0"/>
    <path d="M 542.0 411.0 L 538.0 412.0"/>
    <path d="M 443.0 554.0 L 443.0 551.0"/>
    <path d="M 559.0 356.0 L 556.0 350.0"/>
    <path d="M 654.0 1002.0 L 657.0 1002.0"/>
    <path d="M 560.0 357.0 L 567.0 362.0"/>
    <path d="M 545.0 457.0 L 547.0 460.0"/>
    <path d="M 487.0 452.0 L 484.0 450.0"/>
    <path d="M 506.0 465.0 L 512.0 464.0"/>
    <path d="M 555.0 363.0 L 558.0 358.0"/>
    <path d="M 525.0 191.0 L 528.0 191.0"/>
    <path d="M 656.0 302.0 L 651.0 298.0"/>
    <path d="M 536.0 470.0 L 522.0 471.0"/>
    <path d="M 875.0 1104.0 L 876.0 1096.0"/>
    <path d="M 612.0 1139.0 L 611.0 1135.0"/>
    <path d="M 506.0 334.0 L 506.0 346.0"/>
    <path d="M 517.0 349.0 L 517.0 336.0"/>
    <path d="M 381.0 159.0 L 385.0 158.0"/>
    <path d="M 195.0 563.0 L 194.0 559.0"/>
    <path d="M 550.0 382.0 L 550.0 386.0"/>
    <path d="M 356.0 251.0 L 371.0 251.0"/>
    <path d="M 335.0 228.0 L 337.0 236.0"/>
    <path d="M 348.0 247.0 L 355.0 251.0"/>
    <path d="M 438.0 586.0 L 459.0 568.0"/>
    <path d="M 62.0 564.0 L 70.0 581.0"/>
    <path d="M 646.0 206.0 L 645.0 212.0"/>
    <path d="M 824.0 621.0 L 824.0 639.0"/>
    <path d="M 658.0 180.0 L 664.0 184.0"/>
    <path d="M 520.0 475.0 L 521.0 472.0"/>
    <path d="M 547.0 349.0 L 540.0 354.0"/>
    <path d="M 673.0 982.0 L 674.0 999.0"/>
    <path d="M 506.0 167.0 L 502.0 171.0"/>
    <path d="M 69.0 989.0 L 74.0 998.0"/>
    <path d="M 609.0 445.0 L 607.0 448.0"/>
    <path d="M 495.0 423.0 L 484.0 417.0"/>
    <path d="M 532.0 570.0 L 529.0 568.0"/>
    <path d="M 613.0 415.0 L 599.0 418.0"/>
    <path d="M 373.0 317.0 L 376.0 316.0"/>
    <path d="M 538.0 421.0 L 527.0 426.0"/>
    <path d="M 538.0 421.0 L 543.0 424.0"/>
    <path d="M 505.0 244.0 L 506.0 265.0"/>
    <path d="M 537.0 276.0 L 553.0 270.0"/>
    <path d="M 563.0 185.0 L 572.0 182.0"/>
    <path d="M 592.0 212.0 L 592.0 204.0"/>
    <path d="M 548.0 434.0 L 550.0 443.0"/>
    <path d="M 540.0 430.0 L 543.0 425.0"/>
    <path d="M 420.0 285.0 L 419.0 280.0"/>
    <path d="M 600.0 481.0 L 610.0 477.0"/>
    <path d="M 445.0 458.0 L 444.0 452.0"/>
    <path d="M 438.0 419.0 L 441.0 434.0"/>
    <path d="M 558.0 335.0 L 554.0 335.0"/>
    <path d="M 204.0 1155.0 L 212.0 1156.0"/>
    <path d="M 559.0 336.0 L 562.0 345.0"/>
    <path d="M 640.0 144.0 L 644.0 153.0"/>
    <path d="M 418.0 1120.0 L 413.0 1120.0"/>
    <path d="M 549.0 371.0 L 552.0 371.0"/>
    <path d="M 506.0 409.0 L 506.0 383.0"/>
    <path d="M 619.0 1109.0 L 617.0 1112.0"/>
    <path d="M 411.0 442.0 L 415.0 441.0"/>
    <path d="M 520.0 465.0 L 525.0 459.0"/>
    <path d="M 521.0 1104.0 L 479.0 1100.0"/>
    <path d="M 923.0 855.0 L 917.0 854.0"/>
    <path d="M 655.0 286.0 L 664.0 278.0"/>
    <path d="M 920.0 1114.0 L 921.0 1099.0"/>
    <path d="M 467.0 351.0 L 465.0 355.0"/>
    <path d="M 412.0 415.0 L 409.0 418.0"/>
    <path d="M 572.0 373.0 L 581.0 387.0"/>
    <path d="M 536.0 450.0 L 540.0 448.0"/>
    <path d="M 455.0 462.0 L 450.0 466.0"/>
    <path d="M 569.0 483.0 L 569.0 479.0"/>
    <path d="M 612.0 1119.0 L 611.0 1124.0"/>
    <path d="M 631.0 580.0 L 623.0 572.0"/>
    <path d="M 483.0 416.0 L 477.0 403.0"/>
    <path d="M 549.0 361.0 L 549.0 358.0"/>
    <path d="M 421.0 441.0 L 418.0 439.0"/>
    <path d="M 409.0 238.0 L 410.0 248.0"/>
    <path d="M 471.0 298.0 L 465.0 287.0"/>
    <path d="M 475.0 448.0 L 479.0 450.0"/>
    <path d="M 434.0 416.0 L 422.0 409.0"/>
    <path d="M 419.0 516.0 L 419.0 519.0"/>
    <path d="M 394.0 343.0 L 383.0 331.0"/>
    <path d="M 829.0 1174.0 L 820.0 1173.0"/>
    <path d="M 472.0 299.0 L 488.0 304.0"/>
    <path d="M 418.0 328.0 L 402.0 319.0"/>
    <path d="M 376.0 182.0 L 378.0 203.0"/>
    <path d="M 528.0 459.0 L 537.0 458.0"/>
    <path d="M 569.0 460.0 L 569.0 451.0"/>
    <path d="M 553.0 372.0 L 555.0 380.0"/>
    <path d="M 507.0 112.0 L 508.0 109.0"/>
    <path d="M 705.0 213.0 L 706.0 219.0"/>
    <path d="M 721.0 715.0 L 724.0 706.0"/>
    <path d="M 696.0 164.0 L 710.0 176.0"/>
    <path d="M 872.0 884.0 L 876.0 893.0"/>
    <path d="M 432.0 203.0 L 432.0 215.0"/>
    <path d="M 149.0 934.0 L 149.0 940.0"/>
    <path d="M 594.0 381.0 L 597.0 367.0"/>
    <path d="M 668.0 187.0 L 665.0 185.0"/>
    <path d="M 416.0 460.0 L 415.0 453.0"/>
    <path d="M 416.0 460.0 L 412.0 467.0"/>
    <path d="M 343.0 247.0 L 346.0 247.0"/>
    <path d="M 517.0 283.0 L 518.0 259.0"/>
    <path d="M 413.0 491.0 L 416.0 498.0"/>
    <path d="M 507.0 125.0 L 507.0 117.0"/>
    <path d="M 434.0 1044.0 L 404.0 1028.0"/>
    <path d="M 86.0 626.0 L 96.0 636.0"/>
    <path d="M 517.0 404.0 L 516.0 425.0"/>
    <path d="M 818.0 1155.0 L 810.0 1156.0"/>
    <path d="M 640.0 245.0 L 652.0 245.0"/>
    <path d="M 584.0 430.0 L 586.0 421.0"/>
    <path d="M 413.0 1106.0 L 421.0 1110.0"/>
    <path d="M 538.0 463.0 L 538.0 459.0"/>
    <path d="M 538.0 463.0 L 535.0 465.0"/>
    <path d="M 538.0 463.0 L 544.0 465.0"/>
    <path d="M 925.0 643.0 L 927.0 636.0"/>
    <path d="M 372.0 287.0 L 369.0 290.0"/>
    <path d="M 417.0 438.0 L 416.0 433.0"/>
    <path d="M 505.0 178.0 L 508.0 169.0"/>
    <path d="M 562.0 303.0 L 567.0 301.0"/>
    <path d="M 204.0 595.0 L 208.0 594.0"/>
    <path d="M 303.0 717.0 L 303.0 720.0"/>
    <path d="M 546.0 444.0 L 543.0 443.0"/>
    <path d="M 640.0 1125.0 L 638.0 1116.0"/>
    <path d="M 414.0 261.0 L 411.0 249.0"/>
    <path d="M 414.0 261.0 L 426.0 248.0"/>
    <path d="M 465.0 226.0 L 459.0 229.0"/>
    <path d="M 463.0 302.0 L 458.0 301.0"/>
    <path d="M 463.0 302.0 L 461.0 307.0"/>
    <path d="M 423.0 345.0 L 419.0 329.0"/>
    <path d="M 145.0 895.0 L 132.0 902.0"/>
    <path d="M 517.0 129.0 L 517.0 122.0"/>
    <path d="M 517.0 129.0 L 522.0 132.0"/>
    <path d="M 517.0 129.0 L 516.0 148.0"/>
    <path d="M 545.0 456.0 L 548.0 454.0"/>
    <path d="M 461.0 493.0 L 475.0 506.0"/>
    <path d="M 933.0 1126.0 L 936.0 1128.0"/>
    <path d="M 552.0 351.0 L 550.0 357.0"/>
    <path d="M 440.0 555.0 L 434.0 556.0"/>
    <path d="M 575.0 191.0 L 574.0 182.0"/>
    <path d="M 613.0 483.0 L 610.0 477.0"/>
    <path d="M 458.0 200.0 L 454.0 196.0"/>
    <path d="M 576.0 192.0 L 581.0 200.0"/>
    <path d="M 454.0 166.0 L 457.0 169.0"/>
    <path d="M 614.0 304.0 L 619.0 302.0"/>
    <path d="M 570.0 377.0 L 559.0 370.0"/>
    <path d="M 451.0 197.0 L 448.0 195.0"/>
    <path d="M 376.0 139.0 L 371.0 150.0"/>
    <path d="M 656.0 193.0 L 657.0 181.0"/>
    <path d="M 507.0 442.0 L 506.0 428.0"/>
    <path d="M 815.0 594.0 L 819.0 595.0"/>
    <path d="M 508.0 443.0 L 514.0 441.0"/>
    <path d="M 465.0 337.0 L 462.0 344.0"/>
    <path d="M 564.0 316.0 L 562.0 308.0"/>
    <path d="M 100.0 855.0 L 105.0 853.0"/>
    <path d="M 391.0 244.0 L 380.0 245.0"/>
    <path d="M 495.0 481.0 L 487.0 483.0"/>
    <path d="M 569.0 430.0 L 572.0 434.0"/>
    <path d="M 654.0 245.0 L 678.0 243.0"/>
    <path d="M 914.0 815.0 L 923.0 813.0"/>
    <path d="M 546.0 568.0 L 552.0 568.0"/>
    <path d="M 173.0 960.0 L 178.0 954.0"/>
    <path d="M 574.0 221.0 L 580.0 224.0"/>
    <path d="M 176.0 477.0 L 179.0 473.0"/>
    <path d="M 207.0 693.0 L 215.0 694.0"/>
    <path d="M 548.0 348.0 L 549.0 345.0"/>
    <path d="M 599.0 430.0 L 611.0 426.0"/>
    <path d="M 816.0 693.0 L 808.0 694.0"/>
    <path d="M 324.0 576.0 L 316.0 575.0"/>
    <path d="M 614.0 415.0 L 617.0 417.0"/>
    <path d="M 607.0 519.0 L 607.0 515.0"/>
    <path d="M 607.0 519.0 L 607.0 527.0"/>
    <path d="M 372.0 244.0 L 367.0 240.0"/>
    <path d="M 402.0 266.0 L 397.0 255.0"/>
    <path d="M 298.0 703.0 L 302.0 688.0"/>
    <path d="M 516.0 108.0 L 509.0 108.0"/>
    <path d="M 563.0 485.0 L 564.0 479.0"/>
    <path d="M 517.0 109.0 L 517.0 114.0"/>
    <path d="M 566.0 230.0 L 566.0 235.0"/>
    <path d="M 583.0 548.0 L 591.0 544.0"/>
    <path d="M 548.0 181.0 L 541.0 185.0"/>
    <path d="M 501.0 106.0 L 507.0 108.0"/>
    <path d="M 572.0 166.0 L 575.0 155.0"/>
    <path d="M 399.0 359.0 L 396.0 361.0"/>
    <path d="M 457.0 300.0 L 460.0 288.0"/>
    <path d="M 517.0 351.0 L 517.0 377.0"/>
    <path d="M 564.0 283.0 L 568.0 283.0"/>
    <path d="M 617.0 1112.0 L 612.0 1109.0"/>
    <path d="M 617.0 1112.0 L 613.0 1118.0"/>
    <path d="M 412.0 414.0 L 409.0 409.0"/>
    <path d="M 568.0 289.0 L 576.0 295.0"/>
    <path d="M 612.0 1118.0 L 595.0 1109.0"/>
    <path d="M 467.0 471.0 L 476.0 470.0"/>
    <path d="M 409.0 237.0 L 420.0 226.0"/>
    <path d="M 456.0 461.0 L 460.0 461.0"/>
    <path d="M 417.0 506.0 L 416.0 499.0"/>
    <path d="M 418.0 471.0 L 420.0 467.0"/>
    <path d="M 589.0 469.0 L 597.0 462.0"/>
    <path d="M 514.0 704.0 L 514.0 819.0"/>
    <path d="M 529.0 567.0 L 531.0 562.0"/>
    <path d="M 405.0 388.0 L 413.0 389.0"/>
    <path d="M 385.0 144.0 L 386.0 137.0"/>
    <path d="M 605.0 333.0 L 601.0 350.0"/>
    <path d="M 592.0 214.0 L 596.0 219.0"/>
    <path d="M 618.0 388.0 L 615.0 389.0"/>
    <path d="M 480.0 683.0 L 475.0 683.0"/>
    <path d="M 502.0 176.0 L 502.0 173.0"/>
    <path d="M 541.0 433.0 L 539.0 438.0"/>
    <path d="M 474.0 343.0 L 477.0 348.0"/>
    <path d="M 448.0 205.0 L 451.0 203.0"/>
    <path d="M 573.0 236.0 L 569.0 236.0"/>
    <path d="M 560.0 303.0 L 558.0 298.0"/>
    <path d="M 560.0 303.0 L 551.0 316.0"/>
    <path d="M 972.0 885.0 L 972.0 880.0"/>
    <path d="M 448.0 470.0 L 443.0 471.0"/>
    <path d="M 425.0 752.0 L 415.0 751.0"/>
    <path d="M 577.0 471.0 L 588.0 470.0"/>
    <path d="M 354.0 728.0 L 349.0 739.0"/>
    <path d="M 476.0 425.0 L 474.0 437.0"/>
    <path d="M 506.0 267.0 L 506.0 283.0"/>
    <path d="M 520.0 467.0 L 521.0 470.0"/>
    <path d="M 614.0 251.0 L 611.0 262.0"/>
    <path d="M 572.0 254.0 L 568.0 256.0"/>
    <path d="M 543.0 456.0 L 539.0 458.0"/>
    <path d="M 394.0 247.0 L 397.0 252.0"/>
    <path d="M 505.0 200.0 L 505.0 195.0"/>
    <path d="M 505.0 465.0 L 501.0 461.0"/>
    <path d="M 518.0 255.0 L 518.0 238.0"/>
    <path d="M 432.0 215.0 L 423.0 225.0"/>
    <path d="M 458.0 124.0 L 461.0 123.0"/>
    <path d="M 432.0 480.0 L 432.0 477.0"/>
    <path d="M 633.0 1144.0 L 629.0 1145.0"/>
    <path d="M 532.0 683.0 L 529.0 685.0"/>
    <path d="M 474.0 333.0 L 470.0 324.0"/>
    <path d="M 383.0 331.0 L 388.0 328.0"/>
    <path d="M 428.0 482.0 L 431.0 482.0"/>
    <path d="M 524.0 190.0 L 525.0 185.0"/>
    <path d="M 500.0 507.0 L 526.0 507.0"/>
    <path d="M 373.0 286.0 L 385.0 289.0"/>
    <path d="M 590.0 400.0 L 593.0 385.0"/>
    <path d="M 657.0 166.0 L 657.0 179.0"/>
    <path d="M 486.0 464.0 L 489.0 465.0"/>
    <path d="M 478.0 460.0 L 479.0 463.0"/>
    <path d="M 545.0 370.0 L 531.0 377.0"/>
    <path d="M 199.0 636.0 L 198.0 618.0"/>
    <path d="M 681.0 825.0 L 682.0 831.0"/>
    <path d="M 580.0 364.0 L 584.0 371.0"/>
    <path d="M 610.0 472.0 L 599.0 469.0"/>
    <path d="M 312.0 549.0 L 316.0 552.0"/>
    <path d="M 580.0 449.0 L 578.0 463.0"/>
    <path d="M 370.0 230.0 L 374.0 215.0"/>
    <path d="M 569.0 210.0 L 571.0 203.0"/>
    <path d="M 517.0 285.0 L 517.0 302.0"/>
    <path d="M 455.0 310.0 L 459.0 308.0"/>
    <path d="M 833.0 1015.0 L 840.0 1015.0"/>
    <path d="M 432.0 591.0 L 436.0 587.0"/>
    <path d="M 552.0 507.0 L 577.0 507.0"/>
    <path d="M 456.0 539.0 L 573.0 539.0"/>
    <path d="M 619.0 453.0 L 619.0 456.0"/>
    <path d="M 632.0 243.0 L 639.0 244.0"/>
    <path d="M 618.0 345.0 L 621.0 345.0"/>
    <path d="M 650.0 297.0 L 636.0 300.0"/>
    <path d="M 477.0 454.0 L 479.0 450.0"/>
    <path d="M 377.0 138.0 L 385.0 136.0"/>
    <path d="M 437.0 418.0 L 434.0 417.0"/>
    <path d="M 568.0 200.0 L 571.0 203.0"/>
    <path d="M 432.0 339.0 L 435.0 353.0"/>
    <path d="M 397.0 354.0 L 389.0 348.0"/>
    <path d="M 611.0 426.0 L 617.0 419.0"/>
    <path d="M 611.0 426.0 L 614.0 429.0"/>
    <path d="M 421.0 531.0 L 605.0 531.0"/>
    <path d="M 890.0 902.0 L 877.0 894.0"/>
    <path d="M 447.0 152.0 L 450.0 156.0"/>
    <path d="M 568.0 478.0 L 565.0 478.0"/>
    <path d="M 448.0 296.0 L 455.0 292.0"/>
    <path d="M 650.0 251.0 L 670.0 250.0"/>
    <path d="M 418.0 539.0 L 440.0 539.0"/>
    <path d="M 438.0 368.0 L 436.0 354.0"/>
    <path d="M 368.0 165.0 L 369.0 161.0"/>
    <path d="M 621.0 345.0 L 631.0 344.0"/>
    <path d="M 576.0 688.0 L 582.0 688.0"/>
    <path d="M 463.0 173.0 L 459.0 173.0"/>
    <path d="M 454.0 204.0 L 456.0 210.0"/>
    <path d="M 656.0 159.0 L 654.0 150.0"/>
    <path d="M 443.0 460.0 L 435.0 457.0"/>
    <path d="M 580.0 694.0 L 583.0 689.0"/>
    <path d="M 595.0 557.0 L 586.0 554.0"/>
    <path d="M 507.0 444.0 L 506.0 448.0"/>
    <path d="M 416.0 442.0 L 418.0 444.0"/>
    <path d="M 476.0 349.0 L 473.0 350.0"/>
    <path d="M 503.0 186.0 L 503.0 190.0"/>
    <path d="M 442.0 472.0 L 443.0 475.0"/>
    <path d="M 830.0 558.0 L 828.0 564.0"/>
    <path d="M 461.0 462.0 L 465.0 465.0"/>
    <path d="M 98.0 644.0 L 97.0 637.0"/>
    <path d="M 872.0 941.0 L 872.0 934.0"/>
    <path d="M 564.0 416.0 L 573.0 426.0"/>
    <path d="M 426.0 482.0 L 416.0 478.0"/>
    <path d="M 373.0 210.0 L 369.0 194.0"/>
    <path d="M 373.0 210.0 L 375.0 213.0"/>
    <path d="M 476.0 424.0 L 479.0 422.0"/>
    <path d="M 571.0 167.0 L 568.0 169.0"/>
    <path d="M 804.0 1192.0 L 801.0 1183.0"/>
    <path d="M 572.0 168.0 L 572.0 171.0"/>
    <path d="M 614.0 430.0 L 609.0 439.0"/>
    <path d="M 506.0 302.0 L 506.0 285.0"/>
    <path d="M 541.0 180.0 L 540.0 184.0"/>
    <path d="M 481.0 394.0 L 476.0 397.0"/>
    <path d="M 456.0 486.0 L 458.0 479.0"/>
    <path d="M 200.0 417.0 L 209.0 428.0"/>
    <path d="M 977.0 603.0 L 984.0 601.0"/>
    <path d="M 547.0 461.0 L 547.0 464.0"/>
    <path d="M 506.0 194.0 L 518.0 194.0"/>
    <path d="M 621.0 181.0 L 616.0 187.0"/>
    <path d="M 548.0 425.0 L 549.0 432.0"/>
    <path d="M 555.0 321.0 L 549.0 332.0"/>
    <path d="M 521.0 179.0 L 518.0 168.0"/>
    <path d="M 559.0 471.0 L 561.0 476.0"/>
    <path d="M 599.0 507.0 L 579.0 507.0"/>
    <path d="M 479.0 182.0 L 475.0 179.0"/>
    <path d="M 449.0 190.0 L 449.0 182.0"/>
    <path d="M 415.0 426.0 L 423.0 427.0"/>
    <path d="M 448.0 194.0 L 449.0 191.0"/>
    <path d="M 486.0 486.0 L 487.0 483.0"/>
    <path d="M 781.0 520.0 L 777.0 519.0"/>
    <path d="M 458.0 424.0 L 451.0 434.0"/>
    <path d="M 679.0 243.0 L 684.0 239.0"/>
    <path d="M 550.0 507.0 L 528.0 507.0"/>
    <path d="M 453.0 165.0 L 451.0 157.0"/>
    <path d="M 403.0 573.0 L 393.0 581.0"/>
    <path d="M 591.0 544.0 L 592.0 539.0"/>
    <path d="M 404.0 389.0 L 409.0 398.0"/>
    <path d="M 559.0 448.0 L 551.0 444.0"/>
    <path d="M 561.0 228.0 L 568.0 215.0"/>
    <path d="M 573.0 202.0 L 571.0 196.0"/>
    <path d="M 505.0 333.0 L 502.0 331.0"/>
    <path d="M 562.0 229.0 L 565.0 229.0"/>
    <path d="M 590.0 147.0 L 585.0 149.0"/>
    <path d="M 451.0 254.0 L 439.0 260.0"/>
    <path d="M 410.0 481.0 L 407.0 481.0"/>
    <path d="M 146.0 902.0 L 146.0 896.0"/>
    <path d="M 494.0 416.0 L 505.0 427.0"/>
    <path d="M 606.0 514.0 L 514.0 514.0"/>
    <path d="M 600.0 354.0 L 598.0 363.0"/>
    <path d="M 613.0 373.0 L 623.0 371.0"/>
    <path d="M 417.0 498.0 L 427.0 506.0"/>
    <path d="M 505.0 202.0 L 505.0 218.0"/>
    <path d="M 622.0 458.0 L 619.0 466.0"/>
    <path d="M 834.0 786.0 L 835.0 779.0"/>
    <path d="M 569.0 451.0 L 560.0 441.0"/>
    <path d="M 523.0 191.0 L 519.0 194.0"/>
    <path d="M 582.0 277.0 L 569.0 270.0"/>
    <path d="M 432.0 338.0 L 429.0 321.0"/>
    <path d="M 452.0 167.0 L 453.0 173.0"/>
    <path d="M 119.0 781.0 L 124.0 787.0"/>
    <path d="M 610.0 1135.0 L 563.0 1129.0"/>
    <path d="M 595.0 481.0 L 598.0 481.0"/>
    <path d="M 586.0 432.0 L 599.0 424.0"/>
    <path d="M 486.0 430.0 L 480.0 422.0"/>
    <path d="M 413.0 1120.0 L 410.0 1123.0"/>
    <path d="M 369.0 290.0 L 376.0 297.0"/>
    <path d="M 558.0 571.0 L 553.0 568.0"/>
    <path d="M 850.0 1093.0 L 847.0 1095.0"/>
    <path d="M 452.0 180.0 L 453.0 173.0"/>
    <path d="M 451.0 221.0 L 455.0 213.0"/>
    <path d="M 441.0 436.0 L 444.0 450.0"/>
    <path d="M 434.0 397.0 L 431.0 385.0"/>
    <path d="M 637.0 347.0 L 632.0 344.0"/>
    <path d="M 439.0 368.0 L 447.0 356.0"/>
    <path d="M 194.0 1174.0 L 203.0 1173.0"/>
    <path d="M 451.0 198.0 L 452.0 201.0"/>
    <path d="M 601.0 752.0 L 609.0 751.0"/>
    <path d="M 591.0 213.0 L 582.0 203.0"/>
    <path d="M 554.0 411.0 L 549.0 403.0"/>
    <path d="M 713.0 175.0 L 714.0 178.0"/>
    <path d="M 517.0 120.0 L 517.0 116.0"/>
    <path d="M 555.0 412.0 L 560.0 416.0"/>
    <path d="M 412.0 363.0 L 400.0 359.0"/>
    <path d="M 528.0 394.0 L 518.0 403.0"/>
    <path d="M 546.0 448.0 L 549.0 453.0"/>
    <path d="M 518.0 466.0 L 514.0 464.0"/>
    <path d="M 473.0 314.0 L 466.0 302.0"/>
    <path d="M 504.0 567.0 L 507.0 561.0"/>
    <path d="M 550.0 683.0 L 545.0 684.0"/>
    <path d="M 506.0 347.0 L 506.0 351.0"/>
    <path d="M 477.0 469.0 L 479.0 465.0"/>
    <path d="M 610.0 441.0 L 614.0 441.0"/>
    <path d="M 487.0 370.0 L 480.0 367.0"/>
    <path d="M 474.0 171.0 L 475.0 178.0"/>
    <path d="M 365.0 264.0 L 379.0 265.0"/>
    <path d="M 482.0 440.0 L 478.0 440.0"/>
    <path d="M 482.0 440.0 L 485.0 447.0"/>
    <path d="M 497.0 685.0 L 494.0 683.0"/>
    <path d="M 627.0 1145.0 L 622.0 1145.0"/>
    <path d="M 325.0 169.0 L 316.0 178.0"/>
    <path d="M 407.0 467.0 L 404.0 459.0"/>
    <path d="M 574.0 235.0 L 570.0 227.0"/>
    <path d="M 373.0 245.0 L 379.0 245.0"/>
    <path d="M 545.0 208.0 L 567.0 200.0"/>
    <path d="M 408.0 468.0 L 411.0 468.0"/>
    <path d="M 649.0 265.0 L 662.0 264.0"/>
    <path d="M 473.0 569.0 L 468.0 572.0"/>
    <path d="M 367.0 179.0 L 368.0 168.0"/>
    <path d="M 477.0 459.0 L 467.0 465.0"/>
    <path d="M 540.0 335.0 L 548.0 333.0"/>
    <path d="M 128.0 656.0 L 128.0 652.0"/>
    <path d="M 551.0 381.0 L 554.0 381.0"/>
    <path d="M 402.0 401.0 L 399.0 399.0"/>
    <path d="M 395.0 362.0 L 398.0 365.0"/>
    <path d="M 570.0 214.0 L 573.0 220.0"/>
    <path d="M 472.0 322.0 L 488.0 328.0"/>
    <path d="M 639.0 327.0 L 649.0 316.0"/>
    <path d="M 471.0 370.0 L 470.0 377.0"/>
    <path d="M 514.0 826.0 L 514.0 822.0"/>
    <path d="M 479.0 459.0 L 483.0 458.0"/>
    <path d="M 627.0 330.0 L 638.0 328.0"/>
    <path d="M 100.0 584.0 L 101.0 598.0"/>
    <path d="M 448.0 507.0 L 428.0 507.0"/>
    <path d="M 402.0 368.0 L 405.0 370.0"/>
    <path d="M 579.0 150.0 L 575.0 155.0"/>
    <path d="M 568.0 257.0 L 575.0 264.0"/>
    <path d="M 505.0 466.0 L 504.0 471.0"/>
    <path d="M 446.0 151.0 L 437.0 148.0"/>
    <path d="M 455.0 236.0 L 452.0 236.0"/>
    <path d="M 377.0 316.0 L 387.0 323.0"/>
    <path d="M 444.0 226.0 L 450.0 222.0"/>
    <path d="M 506.0 317.0 L 506.0 306.0"/>
    <path d="M 881.0 609.0 L 882.0 595.0"/>
    <path d="M 574.0 192.0 L 571.0 196.0"/>
    <path d="M 653.0 1010.0 L 653.0 1003.0"/>
    <path d="M 570.0 338.0 L 563.0 334.0"/>
    <path d="M 477.0 259.0 L 465.0 254.0"/>
    <path d="M 546.0 395.0 L 550.0 397.0"/>
    <path d="M 450.0 507.0 L 474.0 507.0"/>
    <path d="M 590.0 401.0 L 587.0 416.0"/>
    <path d="M 461.0 287.0 L 465.0 287.0"/>
    <path d="M 390.0 1166.0 L 393.0 1167.0"/>
    <path d="M 611.0 1134.0 L 611.0 1125.0"/>
    <path d="M 550.0 342.0 L 553.0 336.0"/>
    <path d="M 551.0 423.0 L 561.0 430.0"/>
    <path d="M 520.0 1109.0 L 518.0 1119.0"/>
    <path d="M 573.0 181.0 L 572.0 173.0"/>
    <path d="M 559.0 283.0 L 562.0 283.0"/>
    <path d="M 611.0 473.0 L 610.0 477.0"/>
    <path d="M 494.0 562.0 L 497.0 567.0"/>
    <path d="M 428.0 1111.0 L 431.0 1114.0"/>
    <path d="M 459.0 317.0 L 461.0 310.0"/>
    <path d="M 837.0 1171.0 L 830.0 1174.0"/>
    <path d="M 375.0 588.0 L 379.0 586.0"/>
    <path d="M 428.0 450.0 L 420.0 448.0"/>
    <path d="M 618.0 467.0 L 614.0 468.0"/>
    <path d="M 568.0 237.0 L 573.0 253.0"/>
    <path d="M 821.0 417.0 L 814.0 427.0"/>
    <path d="M 518.0 236.0 L 518.0 218.0"/>
    <path d="M 710.0 177.0 L 713.0 179.0"/>
    <path d="M 609.0 539.0 L 592.0 539.0"/>
    <path d="M 542.0 449.0 L 542.0 452.0"/>
    <path d="M 617.0 399.0 L 621.0 391.0"/>
    <path d="M 433.0 398.0 L 420.0 391.0"/>
    <path d="M 506.0 382.0 L 506.0 372.0"/>
    <path d="M 497.0 190.0 L 502.0 191.0"/>
    <path d="M 480.0 366.0 L 479.0 362.0"/>
    <path d="M 495.0 386.0 L 480.0 379.0"/>
    <path d="M 468.0 369.0 L 456.0 376.0"/>
    <path d="M 620.0 237.0 L 631.0 242.0"/>
    <path d="M 471.0 680.0 L 474.0 682.0"/>
    <path d="M 98.0 812.0 L 89.0 804.0"/>
    <path d="M 519.0 167.0 L 531.0 179.0"/>
    <path d="M 609.0 506.0 L 610.0 499.0"/>
    <path d="M 519.0 203.0 L 518.0 216.0"/>
    <path d="M 476.0 507.0 L 498.0 507.0"/>
    <path d="M 542.0 452.0 L 539.0 453.0"/>
    <path d="M 418.0 507.0 L 426.0 507.0"/>
    <path d="M 550.0 397.0 L 549.0 402.0"/>
    <path d="M 550.0 433.0 L 557.0 437.0"/>
    <path d="M 223.0 1183.0 L 219.0 1192.0"/>
    <path d="M 125.0 913.0 L 131.0 905.0"/>
    <path d="M 684.0 238.0 L 686.0 231.0"/>
    <path d="M 388.0 325.0 L 388.0 328.0"/>
    <path d="M 377.0 315.0 L 381.0 312.0"/>
    <path d="M 381.0 586.0 L 389.0 582.0"/>
    <path d="M 568.0 269.0 L 566.0 258.0"/>
    <path d="M 637.0 139.0 L 627.0 137.0"/>
    <path d="M 843.0 473.0 L 846.0 478.0"/>
    <path d="M 881.0 765.0 L 879.0 773.0"/>
    <path d="M 514.0 828.0 L 514.0 832.0"/>
    <path d="M 600.0 751.0 L 595.0 750.0"/>
    <path d="M 537.0 294.0 L 557.0 284.0"/>
    <path d="M 486.0 477.0 L 487.0 483.0"/>
    <path d="M 323.0 226.0 L 325.0 228.0"/>
    <path d="M 650.0 212.0 L 655.0 195.0"/>
    <path d="M 405.0 237.0 L 393.0 244.0"/>
    <path d="M 465.0 287.0 L 471.0 285.0"/>
    <path d="M 471.0 424.0 L 461.0 432.0"/>
    <path d="M 473.0 384.0 L 471.0 395.0"/>
    <path d="M 490.0 293.0 L 472.0 285.0"/>
    <path d="M 466.0 466.0 L 466.0 470.0"/>
    <path d="M 166.0 619.0 L 166.0 609.0"/>
    <path d="M 451.0 235.0 L 454.0 229.0"/>
    <path d="M 410.0 1100.0 L 413.0 1101.0"/>
    <path d="M 442.0 387.0 L 446.0 409.0"/>
    <path d="M 506.0 371.0 L 506.0 352.0"/>
    <path d="M 463.0 186.0 L 453.0 181.0"/>
    <path d="M 549.0 454.0 L 550.0 459.0"/>
    <path d="M 475.0 397.0 L 472.0 396.0"/>
    <path d="M 416.0 576.0 L 420.0 569.0"/>
    <path d="M 474.0 437.0 L 464.0 445.0"/>
    <path d="M 474.0 437.0 L 477.0 439.0"/>
    <path d="M 402.0 268.0 L 407.0 284.0"/>
    <path d="M 433.0 557.0 L 420.0 566.0"/>
    <path d="M 607.0 449.0 L 609.0 452.0"/>
    <path d="M 444.0 571.0 L 435.0 580.0"/>
    <path d="M 553.0 334.0 L 550.0 333.0"/>
    <path d="M 371.0 150.0 L 369.0 159.0"/>
    <path d="M 347.0 243.0 L 337.0 237.0"/>
    <path d="M 409.0 419.0 L 414.0 425.0"/>
    <path d="M 450.0 191.0 L 454.0 196.0"/>
    <path d="M 631.0 244.0 L 629.0 250.0"/>
    <path d="M 638.0 139.0 L 640.0 143.0"/>
    <path d="M 141.0 766.0 L 142.0 773.0"/>
    <path d="M 419.0 1119.0 L 421.0 1111.0"/>
    <path d="M 517.0 379.0 L 517.0 403.0"/>
    <path d="M 644.0 154.0 L 646.0 160.0"/>
    <path d="M 459.0 230.0 L 460.0 233.0"/>
    <path d="M 518.0 316.0 L 532.0 302.0"/>
    <path d="M 435.0 546.0 L 440.0 539.0"/>
    <path d="M 464.0 322.0 L 463.0 332.0"/>
    <path d="M 419.0 579.0 L 437.0 567.0"/>
    <path d="M 826.0 445.0 L 830.0 445.0"/>
    <path d="M 404.0 572.0 L 405.0 569.0"/>
    <path d="M 406.0 236.0 L 408.0 229.0"/>
    <path d="M 495.0 443.0 L 485.0 438.0"/>
    <path d="M 540.0 185.0 L 530.0 191.0"/>
    <path d="M 824.0 474.0 L 827.0 488.0"/>
    <path d="M 415.0 432.0 L 411.0 429.0"/>
    <path d="M 442.0 278.0 L 456.0 269.0"/>
    <path d="M 548.0 179.0 L 549.0 171.0"/>
    <path d="M 603.0 352.0 L 617.0 344.0"/>
    <path d="M 464.0 400.0 L 471.0 396.0"/>
    <path d="M 952.0 581.0 L 960.0 564.0"/>
    <path d="M 592.0 539.0 L 574.0 539.0"/>
    <path d="M 621.0 1145.0 L 613.0 1140.0"/>
    <path d="M 468.0 350.0 L 471.0 350.0"/>
    <path d="M 583.0 434.0 L 581.0 447.0"/>
    <path d="M 595.0 444.0 L 607.0 440.0"/>
    <path d="M 441.0 471.0 L 437.0 471.0"/>
    <path d="M 483.0 458.0 L 482.0 455.0"/>
    <path d="M 456.0 337.0 L 462.0 333.0"/>
    <path d="M 455.0 229.0 L 458.0 229.0"/>
    <path d="M 466.0 336.0 L 469.0 336.0"/>
    <path d="M 953.0 989.0 L 947.0 998.0"/>
    <path d="M 486.0 448.0 L 489.0 449.0"/>
    <path d="M 440.0 188.0 L 443.0 199.0"/>
    <path d="M 527.0 341.0 L 518.0 350.0"/>
    <path d="M 444.0 199.0 L 447.0 195.0"/>
    <path d="M 470.0 337.0 L 473.0 342.0"/>
  </g>
</svg>